<svg xmlns="http://www.w3.org/2000/svg" viewBox="0 0 728.48 225.67"><defs><style>.cls-1{fill:none;}.cls-2{fill:#fff;}.cls-3{fill:#030c69;}</style></defs><g id="Layer_2" data-name="Layer 2"><g id="Layer_1-2" data-name="Layer 1"><polygon class="cls-1" points="267.12 101.14 271.35 106.27 271.35 96.02 267.12 101.14"/><path class="cls-1" d="M403.48,136.56a5,5,0,0,0-2.33-.39h-2.83v3.37h2.83a4.49,4.49,0,0,0,2.36-.43h0a4.76,4.76,0,0,0,.14-1.26A3.66,3.66,0,0,0,403.48,136.56Z"/><path class="cls-1" d="M278.21,136.17h-2.83v3.37h2.83a4.49,4.49,0,0,0,2.36-.43,4.76,4.76,0,0,0,.14-1.26,3.66,3.66,0,0,0-.17-1.29A5,5,0,0,0,278.21,136.17Z"/><polygon class="cls-2" points="225.12 107.25 224.52 104.29 224.24 102.75 223.48 100.36 222.85 98.39 222.15 96.73 221.02 94.13 220.53 93.29 219.07 90.69 218.79 90.19 216.13 86.46 213.2 83.12 148.87 17.31 145.28 13.68 144.68 13.03 143.7 12.15 142.3 10.83 141.81 10.38 141.39 9.99 140.47 9.32 137.75 7.32 136.84 6.74 133.8 4.95 132.72 4.45 129.59 3.01 128.44 2.65 125.3 1.58 120.77 0.56 119.43 0.43 116.28 0.06 111.65 0 110.91 0.09 107.25 0.43 106.4 0.57 102.62 1.33 101.73 1.63 98.37 2.69 97.5 3.04 94.12 4.51 90.08 6.76 89.25 7.38 86.47 9.37 85.62 10.06 84.92 10.71 83.58 11.88 82.99 12.43 80.44 14.89 78.45 16.85 76.08 19.18 12.98 80.96 9.98 84.23 7.26 87.9 6.84 88.63 5.26 91.29 4.94 91.83 3.02 96 2.31 98.18 1.57 100.33 1.22 101.98 0.56 104.83 0.45 105.93 0.08 109.18 0.03 109.81 0 113.93 0.33 117.5 0.45 118.54 1.03 121.42 1.31 122.92 2.7 127.31 3.4 128.97 4.49 131.49 4.98 132.38 6.46 134.99 6.73 135.48 9.38 139.23 12.33 142.58 74.35 205.97 76.66 208.33 78.66 210.39 80.34 212.09 80.9 212.65 81.81 213.54 82.81 214.43 83.17 214.77 83.23 214.82 84.16 215.67 85.09 216.38 87.81 218.38 88.84 219.01 91.76 220.72 95.9 222.63 97.09 223.04 100.26 224.09 101.47 224.37 104.7 225.1 106.11 225.27 109.26 225.64 113.75 225.67 114.39 225.63 118.42 225.25 119.29 225.07 122.88 224.34 123.78 224.05 127.25 222.99 131.47 221.15 132.32 220.65 135.44 218.91 136.28 218.28 139.16 216.27 140.14 215.39 140.22 215.35 141.07 214.56 141.87 213.86 142.44 213.39 143.43 212.4 145.06 210.8 147.12 208.79 149.45 206.5 212.53 144.72 215.53 141.48 218.25 137.82 218.68 137.13 220.23 134.47 220.6 133.88 221.85 131.09 222.49 129.71 223.25 127.49 223.98 125.34 224.95 120.91 225.1 119.75 225.5 116.33 225.5 115.76 225.55 112.14 225.55 111.72 225.2 108.21 225.12 107.25"/><path class="cls-2" d="M537.89,81.18,528,93.4h-2.61V81.18H508.69v19.13L500,81.1H483.2L472,105.88H456.15c-2.27,0-4-.4-4.8-1.09-.6-.53-1-1.88-1-3.7s.34-3.15.93-3.67c.38-.32,1.59-1.07,4.82-1.07h19.66V81l-20.3-.11c-6.68,0-12,1.7-15.84,5.06l-.32.31V81.1H422.63V95.48L408.48,81.1H382v24.27c0,.16,0,.3,0,.41a10.76,10.76,0,0,1-1.54.1h-8.11a10.76,10.76,0,0,1-1.54-.1c0-.11,0-.25,0-.41V81.1H346l-12.43,8.71L321.1,81.1H271.35v.08h-9.1L252.38,93.4h-2.61V81.18H233.05v39.95h16.72V108.86h2.56l9.92,12.27h95.92v-4a12.83,12.83,0,0,0,3.73,2.52,22.34,22.34,0,0,0,9.29,1.65h10.37a22.29,22.29,0,0,0,9.28-1.65,12.88,12.88,0,0,0,3.74-2.52v4H411.3V106.72l14.15,14.41h13.9V116c.12.1.21.21.33.31,3.86,3.37,9.25,5.08,16,5.08h20.54v-.21h7.22l2.86-6.35h10.63l2.85,6.35h25.62V108.86H528l9.91,12.27h21.34l-16.46-20,16.48-20Zm-270.77,20L271.35,96v10.25Z"/><polygon class="cls-2" points="711.76 81.1 711.76 100.31 703.11 81.1 686.27 81.1 677.62 100.31 677.62 81.1 660.9 81.1 660.9 95.48 646.74 81.1 632.84 81.1 632.84 100.31 624.19 81.1 607.35 81.1 596.29 105.67 578.41 105.67 578.41 81.1 561.69 81.1 561.69 121.13 589.32 121.13 600.38 121.13 607.6 121.13 610.46 114.78 621.09 114.78 623.94 121.13 632.84 121.13 642.22 121.13 649.56 121.13 649.56 106.72 663.72 121.13 668.24 121.13 677.62 121.13 686.52 121.13 689.37 114.78 700 114.78 702.86 121.13 711.76 121.13 721.13 121.13 728.48 121.13 728.48 81.1 711.76 81.1"/><path class="cls-2" d="M308,130.25l-7.74-7.86H288.42v2.32a19.54,19.54,0,0,0-9.91-2.35l-9.36,0h-2.77v-.15H244.91a12.3,12.3,0,0,0-8.34,2.8,10.59,10.59,0,0,0-3.52,8.38,11.4,11.4,0,0,0,1.68,6.25h-1.18v13.82H255.9a14.2,14.2,0,0,0,4.79-.77v.63h17.84a19.61,19.61,0,0,0,9.89-2.35v2.35h14.69v-7.88l7.74,7.88h11.84v-31H308Zm-27.43,8.86a4.49,4.49,0,0,1-2.36.43h-2.83v-3.37h2.83a5,5,0,0,1,2.33.39,3.66,3.66,0,0,1,.17,1.29A4.76,4.76,0,0,1,280.57,139.11Z"/><path class="cls-2" d="M413.53,126.22c-3-2.56-7.07-3.86-12.08-3.86l-9.36,0H374.84V131h-4.78v-8.59H355.37v1a15,15,0,0,0-5.68-1l-22.63.07v30.89l23.23,0a15,15,0,0,0,5.08-.81v.84h14.69v-8.56h4.78v8.56h26.63c5,0,9-1.3,12.06-3.86,2.23-1.9,4.9-5.46,4.9-11.64S415.76,128.11,413.53,126.22Zm-10,12.89a4.49,4.49,0,0,1-2.36.43h-2.83v-3.37h2.83a5,5,0,0,1,2.33.39,3.66,3.66,0,0,1,.17,1.29,4.76,4.76,0,0,1-.14,1.26Z"/><path class="cls-2" d="M211.48,112.14l0,3.54-.06.36-.42,3.13-.22.89-.67,2.54-.53,1.4-.75,1.89-1.06,2-.62,1.14-1.78,2.54-.25.36-2.38,2.62-.53.51-3.32,3.26-3,3-63,61.68-2.65,2.32-2.93,2-3.16,1.62-2.28.83-1,.37-3.43.81-3.18.36-.33,0-3.55,0-3.48-.48-3.44-.86-2-.81-1.29-.5L97,206.88l-2.9-2-2.62-2.37L29.55,139.17l-3-3-3.21-3.32-.25-.25-2.32-2.65-.42-.61L18.81,127l-.72-1.39-.9-1.76-.75-2.12-.45-1.2-.67-2.76-.14-.7-.39-3.35v-.14l0-3.54.06-.37.42-3.15.22-.86.64-2.54.56-1.42.75-1.87,1-2,.65-1.15,1.78-2.54.25-.33,2.37-2.62.51-.53,3.32-3.24,3-3,63-61.68,2.68-2.32,2.93-2,3.15-1.59,2.26-.84,1-.39,3.46-.81,3.51-.39,3.52,0,3.51.48,3.43.89,2,.78,1.29.5,3.12,1.68,2.88,2,2.62,2.37,61.94,63.34,3,3,3.21,3.29.25.25,2.32,2.68.41.61,1.57,2.32.69,1.39.9,1.76.78,2.09.44,1.23.65,2.76.16.67.37,3.35Z"/><path class="cls-1" d="M210.56,108l-.64-2.76-.44-1.23-.79-2.09-.89-1.76-.7-1.39-1.56-2.32-.42-.61-2.31-2.68-.25-.25-3.21-3.29-3-3L134.43,23.19l-2.63-2.37-2.87-2-3.12-1.68-1.29-.5-2-.78-3.43-.89-3.52-.48-3.51,0-3.52.39-3.46.81-1,.39-2.26.84-3.15,1.59-2.93,2-2.68,2.32-63,61.68-3,3-3.32,3.24-.5.53-2.37,2.62-.25.33-1.79,2.54-.64,1.15-1,2-.75,1.87-.56,1.42-.64,2.54-.23.86-.42,3.15,0,.37,0,3.54v.14l.39,3.35.14.7.67,2.76.45,1.2.75,2.12.89,1.76.73,1.39L20,129.3l.42.61,2.31,2.65.26.25,3.2,3.32,3,3L91.1,202.48l2.62,2.37,2.9,2,3.1,1.68,1.28.5,2,.81,3.43.86,3.49.48,3.54,0,.34,0,3.18-.36,3.43-.81,1-.37,2.29-.83,3.15-1.62,2.93-2,2.65-2.32,63-61.68,3-3,3.32-3.26.53-.51,2.37-2.62.25-.36,1.79-2.54.61-1.14,1.06-2,.76-1.89.53-1.4.67-2.54.22-.89L211,116l.05-.36,0-3.54,0-.17-.36-3.35Zm-53-47.62,1.65,1.7L161,63.79l3.74,3.82,4.13,4.24,4.49,4.58,2.7,2.76,2.4,2.45,2.1,2.15,1.78,1.82.92,1h0l-6.67.56-.05,0-6.73.17-6.58-.17-.17,0-6.61-.56h-.09l-6.66-1L143,83.79l-6.58-2.15-6.5-2.45-6.34-2.76,8.21-4.58,8.42-4.24,8.62-3.82L153.29,62ZM99.33,29.78l.31-.28,1.86-1.59.31-.25,2.07-1.31.33-.2,2.23-1,.34-.14,2.4-.67.33-.11,2.57-.34.25,0,2.82,0,2.2.34.59.11,2.23.67.47.14,2.15,1,.42.2,2,1.31.39.25,1.79,1.59.33.28L144.5,47l5.1,5.22-.33.11-7.51,2.88-5,2.15-2.68,1.14L126.78,62l-.22.11-7.34,4-.47.31-2.88,1.7-3.82,2.32-3.77-2.32-2.79-1.7-.39-.31-5.74-4L99.19,62l-4.58-3.57-1.48-1.14-2.51-2.15-3.29-2.88-.14-.11L81.78,47ZM64.82,63.59l4.91-4.82,3.71-3.6,1.5-1.48,1.51,1.48,3.68,3.6,5.47,4.82,4.66,3.69,1.06.83,5.11,3.63.83.59L103,76l.42.25-4.88,3.66-2,1.5-2.59,2.13-3.83,3.12-.25.22-.39-.22L83.7,83.49l-3.48-2.13-2.46-1.5L72.38,76.2,72,76l-4.8-3.62-.78-.59-4.36-3.63-1-.83Zm-23.52,23,4-3.93,4.32-4.22L52.21,76l2-2,2.29,2,2.93,2.51,5.44,4.22,5.64,3.93L72.68,88l3.66,2.28,3.49,2,2.51,1.42L79.8,96.18l-3.6,3.6,0,0-3.07,3.35-2.65,2.93-.08.09-.22-.09-6.23-2.93-6.27-3.35-.09,0-6-3.6-3.8-2.54-2.12-1.42-2.62-2L39.93,88ZM25.12,113.87l-1.29-.81.06-2.37v-.37l.42-2.67.14-.48.64-2.12.81-1.76.33-.72,1.48-2.29,1-1.14.78-.92,2.09-2,1.56-1.56,2,1.56,2.63,2,1.14.92,1.67,1.14,3.3,2.29,1,.72,2.82,1.76,3.37,2.12.9.48,4.88,2.67.64.37,4.91,2.37,1.65.81L62,116.63,59.52,120l-.7,1L57.42,123l-1.87,2.74L54,128l-.08.11L53.6,128l-6-2.34L41.46,123l-4.15-2.06-1.87-1-5.89-3.32Zm21,27.56-.56,1-1-1-4.8-4.91L37.7,134.4,35.38,132l-1.59-1.65-.92-.94,1.93.94L38.09,132l5.33,2.37,5.44,2.12Zm155.54-27.56,0,1.34-.19,1.31-.22,1.5-.26.76-.55,1.84,0,.11-.62,1.31-.47,1-.11.28-.7,1.06-.61.92-.06,0-.19.31-1.87,2.12-.84.84-3,2.93-2.65,2.59L187,136.35l-1.84,1.79-1.37,1.34-1.48,1.45-3.57,3.49-3.29,3.21-3,2.9-2.6,2.54-2.17,2.17L166,157l-2.59,2.54-2.18,2.12-1.76,1.73-1.34,1.31-.92.9-.55.55-.23.23L126.2,195.89l-.31.31-1.84,1.56-.31.25-2.06,1.31-.34.2-2.26,1-.33.14-2.4.7-.31.08-2.59.34-.23,0-2.84,0-2.21-.34-.58-.08-2.21-.7-.5-.14-2.12-1-.45-.2-2-1.31-.39-.25-1.79-1.56-.33-.31L69,166.35l-.09-.12,6.7.12,6.72-.23,6.7-.55,6.64-.9,6.16-1.31,6.09-1.73,5.91-2.12,5.78-2.54,3.71-1.73,3.46-2.17,3.2-2.54,2.88-2.9,2.54-3.21,2.14-3.49-.86.5L134,143l-1.9,1.09-.19.11-1.12.59-.42.22-4.21,2.15-1.2.56-4.72,2.09-6,2.32-6.14,1.95-6.25,1.65-2.57.33-4.54.62-2.76.22-4.41.39-3.46.11-3.71.11-7.17-.11-1.71-.11L66,156.89l-1.93-.22-5.19-.62-.33-.33L57,154.07,55,152.12l-2.26-2.32-2.06-2.09.36-.56L52.43,145l.17-.25L53,144l.45-.7.33-.5,1.12-1.68,1.12-1.67.28-.42,1.64.42,6.14,1.67L72,142.83l3.43.5,4.52.7,8,.72,8,.25,8.06-.22,5.22-.59,1-.11,6.22-1.09,6.11-1.56,1.54-.5,4.46-1.45,3.85-1.34,3.69-1.79,3.43-2.23,3.15-2.59,2.85-2.93.61-.84,1.62-2.12.25-.31-.95.42-.11.06L142.18,128l-6,2.34-1.48.51L130,132.42l-2,.56-4.18,1.14-2.32.5-4,.87-2,.31-4.38.69h-.47l-1.12,0-6.64.2-7-.2-1.2,0h-.14l-8.06-.69-2.18-.31-6-.87-2.42-.5L70.2,133l-2.09-.56-5.86-1.53.39-.51L64.51,128l1.76-2.23.39-.48.64-.83.31-.37.72-.83,1.31-1.56,1.65-1.9,1.76-2,.16-.19.59.19,6.08,2,6.75,1.9,6.87,1.56,4.82.83,2.1.37,7,.83,7,.48,6.31-.06,5.47-.42.81,0,6.25-.92,4.91-1.06,1.25-.28,4-1,3.57-1.31.26-.11,3.65-1.84L152,118l2.26-1.5,1.51-1.31,1.62-1.34,1.37-1.48,1.39-1.51-4.32,1.48L154,113l-4.52,1.26-1.7.47-4.72,1.06-1.59.37-5,.83-1.42.23-5.39.61-1,.11-2,.11-4.47.26-3.76-.26-1.65-.11-1.73-.11-5.1-.61-2-.23-4.94-.83-2.12-.37-4.8-1.06-2.18-.47L89.28,113l-2.23-.61-4.54-1.48-2.26-.75.58-.56.89-.86.14-.14.59-.59,1.23-1.17,1.59-1.56,1.09-1,.94-.86,2.49-2.23,2.87-2.57,0,0,0,0,6.52,2.57,6.7,2.23,3,.86,3.77,1,6.89,1.56,7,1.17,6.27.59,6.31.14,6.3-.28,6.25-.73,4.05-.58,1.06-.26,2.9-.75,3.82-1.5.64-.34,3-1.56,1.2-.84,2.18-1.51.75-.67,2.32-2-3.69.86-2.62.59-5.22.92-1.14.22-6.42.78-3.15.2-3.29.22-6.47.06-1.57-.06-4.91-.22-1.2-.2-4.63-.78-1.2-.22-4.18-.92-2.79-.59L118,97.69l-3.74-1-6.78-2.2-1.76-.67-.25-.11-.64-.22-2-.79-2-.78.59-.42,2.45-1.84,2.9-2.17.78-.59,2.82-1.92,3.29-2.26.81-.56,1.29.56,5.05,2.26,5,1.92,1.51.59,6.58,2.17,6.7,1.84,2.2.42,4,.78,6.28.79,4.55.22,1.73.11,6.3-.11,4.08-.14,4-.64,3.94-1.09,3.76-1.54,1.17-.64,2.4-1.31,1.29,1.31.64.64,1.51,1.54,1.06,1.09.61.64.14.14.11.11.64.67,2.18,2.2,1,1,2,2,.56.67,1.26,1.51.53.84,1,1.56.17.34.64,1.5.34.75.08.26.17.58.19.73.09.28.25.86,0,.56.12.75.19,1.51Z"/><path class="cls-3" d="M220.22,108.62l-.06-.67-.56-2.76-.22-1.23-.67-2.09-.56-1.76-.58-1.39-1-2.32-.36-.61-1.51-2.68-.14-.25-2.34-3.29-2.68-3L147.62,23.19l-2.31-2.37-2-2-1.65-1.68-.47-.5-.87-.78-.95-.89-.5-.48-.05,0-.62-.58-.7-.5-2.56-1.9-.76-.48-2.7-1.59L130.63,9l-2.84-1.31-.9-.28-3-1-1-.22-3-.67-1.11-.12L116,5.06l-4-.06-.47.06-3.55.33-.67.12-3.32.67-.67.22-3.18,1-.69.28L96.34,9l-.69.39L92.8,11l-.64.48-2.65,1.9-.62.5-.64.58-.44.39-.92.81-.42.39-.87.84L84,18.45l-2,2-2.37,2.32-63,61.68-2.74,3-2.39,3.24-.31.53L9.58,93.81l-.2.33L8.21,96.68l-.53,1.15-.64,2-.64,1.87-.31,1.42-.59,2.54-.08.86-.36,3.15L5,110l0,3.54v.14l.31,3.35.08.7L6,120.51l.22,1.2.67,2.12.56,1.76L8,127l1,2.32.33.61,1.51,2.65.14.25,2.34,3.32,2.68,3,61.94,63.31,2.32,2.37,2,2,1.64,1.68.5.5.84.81,1,.86.5.48,0,0,.64.58.7.53,2.54,1.87.78.48,2.7,1.59.84.39L97.77,218l.89.31,3,1,.94.23,3,.66,1.14.14,2.88.34,4,0,.48,0,3.57-.34.64-.14,3.32-.66.7-.23,3.18-1,.7-.31,3-1.31.67-.39,2.84-1.59.65-.48,2.67-1.87.59-.53.64-.58.06,0,.39-.36.92-.81.45-.37.83-.83,1.65-1.62,2-2,2.35-2.32,63-61.68,2.73-3,2.43-3.26.3-.51,1.54-2.62.22-.36,1.15-2.54.53-1.14.67-2,.64-1.89.3-1.4.56-2.54.11-.89.37-3.13v-.36l.05-3.54V112Zm-9.1,3.52,0,3.54L211,116l-.42,3.13-.22.89-.67,2.54-.53,1.4-.76,1.89-1.06,2-.61,1.14L205,131.53l-.25.36-2.37,2.62-.53.51-3.32,3.26-3,3-63,61.68-2.65,2.32-2.93,2-3.15,1.62-2.29.83-1,.37-3.43.81-3.18.36-.34,0-3.54,0-3.49-.48-3.43-.86-2-.81-1.28-.5-3.1-1.68-2.9-2-2.62-2.37L29.19,139.17l-3-3L23,132.81l-.26-.25-2.31-2.65L20,129.3,18.45,127l-.73-1.39-.89-1.76-.75-2.12-.45-1.2L15,117.75l-.14-.7-.39-3.35v-.14l0-3.54,0-.37.42-3.15.23-.86.64-2.54.56-1.42.75-1.87,1-2,.64-1.15,1.79-2.54.25-.33,2.37-2.62.5-.53L27,87.42l3-3,63-61.68,2.68-2.32,2.93-2,3.15-1.59,2.26-.84,1-.39,3.46-.81,3.52-.39,3.51,0,3.52.48,3.43.89,2,.78,1.29.5,3.12,1.68,2.87,2,2.63,2.37,61.93,63.34,3,3,3.21,3.29.25.25,2.31,2.68.42.61,1.56,2.32.7,1.39.89,1.76.79,2.09.44,1.23.64,2.76.17.67.36,3.35Z"/><polygon class="cls-3" points="87.33 52.29 90.62 55.17 93.14 57.31 94.61 58.46 99.19 62.03 99.36 62.14 105.1 66.1 105.49 66.41 108.28 68.11 112.05 70.43 115.87 68.11 118.75 66.41 119.22 66.1 126.56 62.14 126.78 62.03 134.09 58.46 136.77 57.31 141.76 55.17 149.27 52.29 149.6 52.18 144.5 46.97 127.7 29.78 127.37 29.5 125.58 27.91 125.19 27.66 123.21 26.35 122.79 26.15 120.64 25.15 120.17 25.01 117.94 24.34 117.35 24.23 115.15 23.89 112.33 23.86 112.08 23.89 109.51 24.23 109.18 24.34 106.78 25.01 106.44 25.15 104.21 26.15 103.88 26.35 101.81 27.66 101.5 27.91 99.64 29.5 99.33 29.78 81.78 46.97 87.19 52.18 87.33 52.29"/><polygon class="cls-3" points="140.2 67.61 131.78 71.85 123.57 76.43 129.91 79.19 136.41 81.64 142.99 83.79 149.69 85.61 156.35 86.58 156.44 86.58 163.05 87.14 163.22 87.17 169.8 87.33 176.53 87.17 176.58 87.14 183.25 86.58 183.22 86.58 182.3 85.61 180.52 83.79 178.42 81.64 176.02 79.19 173.32 76.43 168.83 71.85 164.7 67.61 160.96 63.79 159.23 62.03 157.58 60.33 153.29 62.03 148.82 63.79 140.2 67.61"/><polygon class="cls-3" points="66.41 71.74 67.19 72.33 71.99 75.95 72.38 76.2 77.76 79.86 80.22 81.36 83.7 83.48 89.45 86.61 89.84 86.83 90.09 86.61 93.92 83.48 96.51 81.36 98.52 79.86 103.4 76.2 102.98 75.95 97.26 72.33 96.43 71.74 91.32 68.11 90.26 67.28 85.6 63.59 80.13 58.77 76.45 55.17 74.94 53.69 73.44 55.17 69.73 58.77 64.82 63.59 61.05 67.28 62.05 68.11 66.41 71.74"/><polygon class="cls-3" points="45.62 92.22 47.74 93.64 51.54 96.18 57.56 99.78 57.65 99.83 63.92 103.18 70.15 106.11 70.37 106.19 70.45 106.11 73.1 103.18 76.17 99.83 76.2 99.78 79.8 96.18 82.34 93.64 79.83 92.22 76.34 90.27 72.68 87.98 70.51 86.61 64.87 82.68 59.43 78.46 56.5 75.95 54.22 73.97 52.21 75.95 49.64 78.46 45.31 82.68 41.3 86.61 39.93 87.98 43 90.27 45.62 92.22"/><polygon class="cls-3" points="201.38 110.13 201.33 109.57 201.08 108.71 200.99 108.43 200.8 107.7 200.63 107.12 200.55 106.86 200.21 106.11 199.57 104.61 199.4 104.27 198.43 102.71 197.9 101.87 196.64 100.36 196.08 99.69 194.1 97.69 193.1 96.65 190.92 94.45 190.28 93.78 190.17 93.67 190.03 93.53 189.42 92.89 188.36 91.8 186.85 90.27 186.21 89.62 184.92 88.31 182.53 89.62 181.35 90.27 177.59 91.8 173.65 92.89 169.61 93.53 165.53 93.67 159.23 93.78 157.5 93.67 152.95 93.44 146.67 92.66 142.71 91.88 140.51 91.46 133.81 89.62 127.23 87.45 125.72 86.86 120.75 84.94 115.7 82.68 114.42 82.12 113.61 82.68 110.32 84.94 107.5 86.86 106.72 87.45 103.82 89.62 101.36 91.46 100.78 91.88 102.79 92.66 104.8 93.44 105.44 93.67 105.69 93.78 107.45 94.45 114.23 96.65 117.97 97.69 121.12 98.55 123.91 99.14 128.09 100.06 129.29 100.28 133.92 101.06 135.12 101.26 140.03 101.48 141.6 101.54 148.07 101.48 151.36 101.26 154.51 101.06 160.93 100.28 162.07 100.06 167.29 99.14 169.91 98.55 173.6 97.69 171.28 99.69 170.53 100.36 168.35 101.87 167.15 102.71 164.19 104.27 163.55 104.61 159.73 106.11 156.83 106.86 155.77 107.12 151.72 107.7 145.47 108.43 139.17 108.71 132.86 108.57 126.59 107.98 119.64 106.81 112.75 105.25 108.98 104.21 105.94 103.35 99.25 101.12 92.72 98.55 92.69 98.52 92.66 98.55 89.79 101.12 87.3 103.35 86.36 104.21 85.27 105.25 83.68 106.81 82.45 107.98 81.86 108.57 81.72 108.71 80.83 109.57 80.25 110.13 82.5 110.88 87.05 112.36 89.28 112.97 93.94 114.23 96.12 114.7 100.92 115.77 103.04 116.13 107.98 116.96 109.99 117.19 115.09 117.8 116.82 117.91 118.47 118.03 122.23 118.28 126.7 118.03 128.68 117.91 129.71 117.8 135.1 117.19 136.52 116.96 141.49 116.13 143.07 115.77 147.79 114.7 149.49 114.23 154.01 112.97 155.8 112.36 160.12 110.88 158.73 112.39 157.36 113.87 155.74 115.21 154.24 116.52 151.97 118.03 150.83 118.78 147.18 120.62 146.93 120.73 143.35 122.04 139.39 123.02 138.14 123.3 133.23 124.36 126.98 125.28 126.17 125.33 120.7 125.75 114.39 125.81 107.39 125.33 100.42 124.5 98.32 124.14 93.5 123.3 86.63 121.73 79.88 119.84 73.8 117.8 73.22 117.61 73.05 117.8 71.29 119.84 69.64 121.73 68.33 123.3 67.61 124.14 67.3 124.5 66.66 125.33 66.27 125.81 64.51 128.04 62.64 130.38 62.25 130.89 68.11 132.42 70.2 132.98 75.84 134.12 78.26 134.63 84.23 135.49 86.41 135.8 94.47 136.49 94.61 136.49 95.81 136.52 102.84 136.72 109.48 136.52 110.6 136.49 111.07 136.49 115.45 135.8 117.46 135.49 121.48 134.63 123.8 134.12 127.98 132.98 130.02 132.42 134.68 130.89 136.16 130.38 142.18 128.04 147.01 125.81 147.12 125.75 148.07 125.33 147.82 125.64 146.2 127.76 145.59 128.6 142.74 131.53 139.59 134.12 136.16 136.35 132.47 138.14 128.62 139.48 124.16 140.93 122.62 141.43 116.52 143 110.29 144.08 109.26 144.19 104.04 144.78 95.98 145 87.94 144.75 79.94 144.03 75.42 143.33 71.99 142.83 64.12 141.15 57.98 139.48 56.34 139.06 56.06 139.48 54.94 141.15 53.82 142.83 53.49 143.33 53.04 144.03 52.6 144.75 52.43 145 51.06 147.15 50.7 147.71 52.76 149.8 55.02 152.12 56.95 154.07 58.57 155.72 58.9 156.05 64.09 156.66 66.02 156.89 71.48 157.28 73.19 157.39 80.36 157.5 84.07 157.39 87.53 157.28 91.94 156.89 94.7 156.66 99.25 156.05 101.81 155.72 108.06 154.07 114.2 152.12 120.25 149.8 124.97 147.71 126.17 147.15 130.38 145 130.8 144.78 131.91 144.19 132.11 144.08 134.01 143 136.63 141.43 137.5 140.93 135.35 144.42 132.81 147.63 129.93 150.53 126.73 153.07 123.27 155.24 119.56 156.97 113.78 159.51 107.87 161.63 101.78 163.36 95.62 164.67 88.98 165.56 82.28 166.12 75.56 166.35 68.86 166.24 68.95 166.35 97.85 195.89 98.19 196.2 99.97 197.76 100.36 198.01 102.31 199.32 102.76 199.52 104.88 200.52 105.38 200.66 107.59 201.36 108.17 201.44 110.38 201.78 113.22 201.81 113.45 201.78 116.04 201.44 116.35 201.36 118.75 200.66 119.08 200.52 121.34 199.52 121.68 199.32 123.74 198.01 124.05 197.76 125.89 196.2 126.2 195.89 156.38 166.35 156.61 166.12 157.16 165.56 158.09 164.67 159.42 163.36 161.18 161.63 163.36 159.51 165.95 156.97 167.74 155.24 169.91 153.07 172.51 150.53 175.47 147.63 178.76 144.42 182.33 140.93 183.81 139.48 185.18 138.14 187.02 136.35 189.28 134.12 191.93 131.53 194.94 128.6 195.78 127.76 197.65 125.64 197.84 125.33 197.9 125.28 198.51 124.36 199.21 123.3 199.32 123.02 199.79 122.04 200.41 120.73 200.44 120.62 200.99 118.78 201.25 118.03 201.47 116.52 201.66 115.21 201.69 113.87 201.69 112.39 201.5 110.88 201.38 110.13"/><polygon class="cls-3" points="37.31 120.9 41.47 122.96 47.63 125.7 53.6 128.04 53.91 128.15 53.99 128.04 55.55 125.7 57.42 122.96 58.82 120.9 59.52 119.95 61.97 116.63 64.04 113.87 62.39 113.06 57.48 110.69 56.84 110.32 51.95 107.65 51.06 107.17 47.69 105.05 44.87 103.29 43.84 102.57 40.54 100.28 38.87 99.14 37.73 98.22 35.1 96.18 33.12 94.62 31.56 96.18 29.47 98.22 28.69 99.14 27.71 100.28 26.23 102.57 25.9 103.29 25.09 105.05 24.45 107.17 24.31 107.65 23.89 110.32 23.89 110.69 23.83 113.06 25.12 113.87 29.55 116.63 35.44 119.95 37.31 120.9"/><polygon class="cls-3" points="38.09 132.03 34.8 130.38 32.87 129.44 33.79 130.38 35.38 132.03 37.7 134.4 39.79 136.52 44.59 141.43 45.59 142.47 46.15 141.43 48.86 136.52 43.42 134.4 38.09 132.03"/><path class="cls-3" d="M238.05,116.13V86.18h6.72V98.4h10l9.87-12.22H273l-12.35,14.95,12.35,15h-8.36l-9.91-12.27h-9.95v12.27Z"/><path class="cls-3" d="M276.35,116.13v-30h32.93v5.46H283.07v6.63h23.77v5.46H283.07v7h26.21v5.46Z"/><path class="cls-3" d="M313.9,116.13v-30h5.63l13.9,9.74h.21l13.9-9.74h5.63v30h-6.72V94.5l-9.53,6.38v15.25h-6.73V100.88l-9.57-6.38v21.63Z"/><path class="cls-3" d="M371.19,116.34a17.88,17.88,0,0,1-7.23-1.2,7.37,7.37,0,0,1-3.78-3.63,14.67,14.67,0,0,1-1.13-6.14V86.1h6.72v19.27c0,2.13.5,3.58,1.49,4.35s2.68,1.16,5.06,1.16h8.11c2.38,0,4.06-.39,5.06-1.16s1.49-2.22,1.49-4.35V86.1h6.72v19.27a14.51,14.51,0,0,1-1.14,6.14,7.29,7.29,0,0,1-3.78,3.63,17.79,17.79,0,0,1-7.22,1.2Z"/><path class="cls-3" d="M399.58,116.13v-30h6.8l21.26,21.58V86.1h6.71v30h-6.8L406.3,94.5v21.63Z"/><path class="cls-3" d="M455.69,116.34q-8.31,0-12.73-3.85t-4.41-11.4q0-7.52,4.41-11.38t12.73-3.82l15.12.08v5.38H456.15q-5.46,0-8.1,2.31c-1.77,1.54-2.65,4-2.65,7.43s.88,5.9,2.65,7.45,4.46,2.34,8.1,2.34h15.08v5.46Z"/><path class="cls-3" d="M472.91,116.13l13.52-30h10.38l13.52,30H503l-2.85-6.35h-17.1l-2.85,6.35Zm12.6-11.81h12.22l-5.84-13h-.54Z"/><path class="cls-3" d="M513.69,116.13V86.18h6.72V98.4h10l9.87-12.22h8.36l-12.35,14.95,12.35,15h-8.36l-9.91-12.27h-10v12.27Z"/><path class="cls-3" d="M566.69,116.13v-30h6.72v24.57h22v5.46Z"/><path class="cls-3" d="M597.06,116.13l13.52-30H621l13.52,30h-7.31l-2.85-6.35h-17.1l-2.85,6.35Zm12.6-11.81h12.22l-5.84-13h-.54Z"/><path class="cls-3" d="M637.84,116.13v-30h6.81l21.25,21.58V86.1h6.72v30h-6.81L644.56,94.5v21.63Z"/><path class="cls-3" d="M676,116.13l13.52-30h10.38l13.52,30h-7.31l-2.85-6.35h-17.1l-2.85,6.35Zm12.6-11.81H700.8l-5.84-13h-.54Z"/><path class="cls-3" d="M716.76,116.13v-30h6.72v30Z"/><path class="cls-3" d="M238.55,148.49v-3.81l16.85,0a2.93,2.93,0,0,0,2-.6,3.1,3.1,0,0,0,0-3.9,2.93,2.93,0,0,0-2-.6H244.91a7.44,7.44,0,0,1-5.06-1.57,6.82,6.82,0,0,1,0-9.23,7.44,7.44,0,0,1,5.06-1.57h16.47v3.81l-16,0a3.06,3.06,0,0,0-2,.57,2.76,2.76,0,0,0,0,3.67,3.06,3.06,0,0,0,2,.57H255.9a7.35,7.35,0,0,1,5.06,1.6,7.1,7.1,0,0,1,0,9.45,7.35,7.35,0,0,1-5.06,1.61Z"/><path class="cls-3" d="M265.69,148.35v-21h3.46l9.38,0q5.69,0,8.82,2.66t3.14,7.83q0,5.16-3.14,7.83t-8.82,2.67Zm12.52-17.18h-7.83v13.36h7.83a8.44,8.44,0,0,0,5.6-1.61q1.9-1.6,1.9-5.07c0-2.32-.63-4-1.9-5.08A8.5,8.5,0,0,0,278.21,131.17Z"/><path class="cls-3" d="M293.42,148.35v-21h4.75L313,142.45V127.39h4.69v21h-4.75l-14.83-15.1v15.1Z"/><path class="cls-3" d="M332.06,148.35V127.44l17.64,0a7.79,7.79,0,0,1,5.18,1.45,5.43,5.43,0,0,1,1.68,4.35,4.82,4.82,0,0,1-1.93,4.25,4.55,4.55,0,0,1,1.9,1.86,6.34,6.34,0,0,1,.62,3,5.78,5.78,0,0,1-1.69,4.5,7.5,7.5,0,0,1-5.17,1.54Zm17.09-17.21h-12.4v4.69h12.4c1.77,0,2.66-.8,2.66-2.41S350.92,131.14,349.15,131.14Zm.58,8.44h-13v5h13q2.67,0,2.67-2.52T349.73,139.58Z"/><path class="cls-3" d="M360.37,148.35v-21h4.69V136h14.78v-8.59h4.69v21h-4.69v-8.56H365.06v8.56Z"/><path class="cls-3" d="M388.63,148.35v-21h3.46l9.38,0q5.68,0,8.82,2.66t3.14,7.83q0,5.16-3.14,7.83t-8.82,2.67Zm12.52-17.18h-7.83v13.36h7.83a8.44,8.44,0,0,0,5.6-1.61q1.9-1.6,1.9-5.07c0-2.32-.63-4-1.9-5.08A8.5,8.5,0,0,0,401.15,131.17Z"/></g></g></svg>