<svg xmlns="http://www.w3.org/2000/svg" viewBox="0 0 441.75 464.85"><defs><style>.cls-1{fill:none;}.cls-2{fill:#fff;}.cls-3{fill:#030c69;}</style></defs><g id="Layer_2" data-name="Layer 2"><g id="Layer_1-2" data-name="Layer 1"><polygon class="cls-1" points="78.73 414.6 114 457.43 114 371.9 78.73 414.6"/><polygon class="cls-1" points="64.59 182.2 65.56 186.19 66.16 187.8 67.27 190.92 68.54 193.42 69.53 195.33 71.84 198.75 72.32 199.46 75.67 203.29 75.95 203.57 81.08 208.88 85.78 213.66 183.57 313.66 187.38 317.1 191.48 319.98 195.85 322.34 197.59 323.02 200.5 324.19 205.32 325.41 210.25 326.08 215.3 326.12 215.53 326.1 220.19 325.57 225.07 324.42 226.45 323.93 229.72 322.74 234.16 320.46 238.29 317.67 242.14 314.3 341.65 216.86 346.48 212.17 351.71 207.03 352.47 206.3 355.87 202.54 358.76 198.43 359.58 196.89 361.13 194.04 362.21 191.32 362.93 189.43 363.92 185.67 364.19 184.59 364.81 179.93 364.86 179.62 364.9 174.8 364.35 169.74 364.17 169.01 363.2 164.86 362.6 163.2 361.48 160.19 360.19 157.67 359.22 155.72 356.93 152.33 356.45 151.62 353.09 147.73 352.82 147.47 347.7 142.21 343 137.42 245.16 37.37 241.34 33.93 237.29 31.06 232.89 28.7 231.14 28.01 228.28 26.88 223.44 25.63 218.49 24.96 213.54 24.92 208.57 25.47 203.72 26.61 202.39 27.11 199.05 28.34 194.6 30.59 190.48 33.38 186.58 36.74 87.08 134.18 82.27 138.9 77.08 143.96 76.4 144.68 72.84 148.61 72.63 148.9 69.99 152.64 69.14 154.16 67.65 157.01 66.55 159.74 65.8 161.65 64.87 165.36 64.58 166.46 63.95 171.25 63.91 171.47 63.87 176.6 64.43 181.4 64.59 182.2"/><path class="cls-1" d="M405.12,426.85H354.75V438.1h50.37c5.39,0,6.38-1.94,6.38-5.75C411.5,428.7,410.51,426.85,405.12,426.85Z"/><path class="cls-1" d="M409,395.6c0-2.23,0-4.75-6.38-4.75H354.75v10h47.87C408.53,400.85,409,398.57,409,395.6Z"/><path class="cls-2" d="M39.64,184.08l.91,4.49.4,2.19,2.11,6.65,1,2.47,1.68,3.86.68,1.25,2.36,4.15.35.63,4,5.69,4.5,5.11,98,100.19,3.65,3.74,3.15,3.24,2.64,2.68.85.85,1.4,1.36L169,334l.67.63.08.08,1.27,1.16,1.34,1,4.2,3.09,1.49.9,4.48,2.64,1.56.73,4.73,2.17,1.71.59,4.88,1.61,1.77.42,5,1.11,2.08.26L209,351l6.83,0,1,0,6-.57,1.23-.27,5.52-1.11,1.31-.42,5.31-1.63,1.35-.6,5-2.19,1.23-.72,4.78-2.67,1.21-.9,4.44-3.09,1.68-1.53.11,0,1.09-1,1.33-1.17.83-.67,1.48-1.48,2.58-2.54,3.25-3.16,3.69-3.64,99.71-97.63,4.59-5,4.13-5.56.65-1.07,2.4-4.09.49-.81,1.92-4.26.95-2,1.15-3.35,1.1-3.26,1.48-6.72.21-1.68.61-5.23v-.78l.08-5.68v-.52l-.54-5.46-.11-1.35-.93-4.55-.41-2.27-1.15-3.6-.95-3-1-2.46-1.71-4-.71-1.2-2.34-4.16-.36-.64-4-5.65-4.5-5.1-101.66-104-5.74-5.83-.85-.9-1.48-1.33-2.25-2.12-.55-.49-.74-.71-1.33-1-4.21-3.11-1.35-.85L246.27,7.5l-1.56-.73-4.79-2.21L238.26,4,233.4,2.39,231.58,2l-5-1.13-2-.2L219.74.1l-7-.1-1,.12L206,.66l-1.23.21L199.07,2l-1.28.42-5.2,1.65-1.28.51-5.13,2.23-6.1,3.4-1.21.9-4.32,3.09-1.2,1-1.07,1-2.13,1.87-.84.78-4,3.87-3.16,3.11-3.75,3.67L58.67,127.13l-4.59,5L50,137.69l-.6,1-2.49,4.19-.43.74L43.53,150l-1.08,3.33-1.11,3.24L40.81,159l-1,4.33-.15,1.6-.58,5-.07.93,0,5.82v.44l.51,5.53Zm24.27-12.61,0-.22.63-4.79.29-1.1.93-3.71.75-1.91,1.1-2.73,1.49-2.85.85-1.52,2.63-3.74.22-.29,3.56-3.93.68-.72,5.19-5.06,4.81-4.72,99.5-97.44,3.9-3.36,4.12-2.79,4.45-2.25,3.34-1.23,1.33-.5,4.85-1.14,5-.55,5,0,4.94.66,4.85,1.26L231.14,28l1.75.69,4.4,2.36,4.05,2.87,3.81,3.44,97.85,100,4.7,4.79,5.12,5.26.27.26,3.36,3.89.48.71,2.29,3.39,1,1.95,1.29,2.52,1.12,3,.6,1.66,1,4.15.18.73.55,5.06,0,4.82-.05.31-.62,4.66-.27,1.08-1,3.76-.72,1.89L361.13,194l-1.55,2.85-.82,1.54-2.89,4.11-3.4,3.76-.76.73-5.23,5.14-4.83,4.69L242.14,314.3l-3.85,3.37-4.13,2.79-4.44,2.28-3.27,1.19-1.38.49-4.88,1.15-4.66.53-.23,0-5.05,0-4.93-.67-4.82-1.22L197.59,323l-1.74-.68L191.48,320l-4.1-2.88-3.8-3.44-97.8-100-4.69-4.78L76,203.57l-.28-.28-3.35-3.84-.48-.7-2.31-3.42-1-1.91-1.27-2.5-1.11-3.12-.6-1.62-1-4-.16-.8-.56-4.8Z"/><path class="cls-2" d="M312.88,408.92c-6.05-5.36-14.42-8.07-24.88-8.07H243.25c-2.39,0-4.15-.44-5.22-1.32s-1.16-2.56-1.16-3.93.2-3.16,1.16-3.93,2.83-1.32,5.21-1.32l73.13.13V364.22H241.12c-10.44,0-18.8,2.67-24.84,7.92-6.24,5.43-9.41,13.32-9.41,23.46s3.17,18,9.41,23.46c6,5.25,14.39,7.91,24.84,7.91h44.75c1.66,0,3.89.24,5.15,1.33.79.69,1.23,2.31,1.23,4.55s-.44,3.86-1.23,4.54c-1.26,1.1-3.49,1.33-5.14,1.33l-76.51-.13V438H144V364.85H114v.25H81.74L52.36,401.47H30V365.1H0v99.12H30v-36.5H52.24l29.5,36.5H209v.63h79c10.47,0,18.85-2.74,24.89-8.15,6.21-5.55,9.36-13.57,9.36-23.85S319.09,414.43,312.88,408.92ZM78.73,414.6,114,371.9v85.53Z"/><path class="cls-2" d="M438.54,418.31a23.44,23.44,0,0,0-4.72-6.11c3.6-4.53,5.43-10.42,5.43-17.6,0-9.73-3-17.25-8.93-22.35-5.7-4.91-14.22-7.4-25.34-7.4l-80.23.27v99.11l82.75-.13c11.15,0,19.71-2.65,25.43-7.87s8.82-13,8.82-22.88C441.75,427.38,440.67,422.32,438.54,418.31Zm-83.79-27.46h47.87c6.38,0,6.38,2.52,6.38,4.75,0,3-.47,5.25-6.38,5.25H354.75Zm50.37,47.25H354.75V426.85h50.37c5.39,0,6.38,1.85,6.38,5.5C411.5,436.16,410.51,438.1,405.12,438.1Z"/><path class="cls-2" d="M370.48,174.42l-.05,5.6-.09.57-.66,4.94-.35,1.42-1.06,4-.84,2.21-1.19,3-1.68,3.08-1,1.81-2.82,4-.4.57-3.75,4.15-.84.79-5.25,5.16-4.8,4.68L246.11,318l-4.19,3.67-4.64,3.13-5,2.56-3.62,1.32-1.63.57-5.43,1.28-5,.58-.53,0-5.6,0-5.51-.75L199.52,329l-3.18-1.28-2-.79-4.89-2.65L184.83,321l-4.15-3.75-97.9-100.1-4.72-4.81L73,207.11l-.4-.4-3.66-4.19-.66-1-2.47-3.66-1.15-2.21-1.41-2.78-1.19-3.35-.71-1.9-1.06-4.37-.22-1.1-.61-5.29v-.22l0-5.61.09-.57.66-5,.35-1.36,1-4,.88-2.25,1.19-3,1.63-3.14,1-1.81,2.82-4,.4-.53,3.75-4.15.79-.83,5.25-5.12,4.81-4.72,99.62-97.55L188,29.4l4.64-3.13,5-2.52,3.58-1.32,1.63-.62,5.47-1.28,5.56-.61,5.56,0,5.56.75,5.42,1.41,3.13,1.24,2,.79,4.94,2.65L245.05,30l4.15,3.75,97.94,100.15,4.72,4.8,5.07,5.21.4.4,3.66,4.23.66,1,2.47,3.67,1.11,2.2,1.41,2.78,1.23,3.31.71,1.94,1,4.37.27,1.06.57,5.29Z"/><path class="cls-1" d="M369,167.8l-1-4.37-.7-1.94-1.24-3.31-1.41-2.78-1.1-2.2-2.47-3.67-.66-1-3.67-4.23-.39-.4-5.08-5.21-4.72-4.8L248.62,33.77,244.48,30l-4.55-3.22L235,24.15l-2-.79-3.13-1.24-5.43-1.41L218.84,20l-5.56,0-5.55.61-5.48,1.28-1.63.62-3.57,1.32-5,2.52-4.63,3.13-4.23,3.66L83.58,130.61l-4.81,4.72-5.25,5.12-.79.83L69,145.43l-.4.53-2.83,4-1,1.81-1.63,3.14-1.19,3L61,160.12l-1,4-.35,1.36-.67,5-.08.57-.05,5.61v.22l.62,5.29.22,1.1,1.06,4.37.71,1.9,1.19,3.35,1.41,2.78,1.15,2.21,2.47,3.66.66,1L72,206.71l.4.4,5.07,5.25,4.72,4.81,97.9,100.1,4.14,3.75,4.59,3.22,4.9,2.65,2,.79L199,329l5.42,1.37,5.52.75,5.6,0,.53,0,5-.58,5.43-1.28,1.63-.57,3.62-1.32,5-2.56,4.63-3.13,4.19-3.67,99.62-97.54,4.81-4.68,5.25-5.16.84-.79,3.75-4.15.4-.57,2.82-4,1-1.81,1.68-3.08,1.19-3,.84-2.21,1.05-4,.36-1.42.66-4.94.09-.57,0-5.6,0-.27-.58-5.29ZM285.24,92.49l2.6,2.69L290.58,98l5.91,6,6.53,6.71,7.1,7.24,4.28,4.36,3.8,3.89,3.3,3.39,2.83,2.87,1.45,1.54h.05l-10.55.89-.08,0-10.64.27-10.41-.27-.26,0L283.43,134h-.13l-10.55-1.54-10.58-2.87-10.42-3.39-10.27-3.89-10-4.36,13-7.24L257.75,104l13.64-6,7.06-2.78ZM193.12,44.18l.49-.44,2.95-2.52.49-.39,3.26-2.08.53-.3,3.53-1.59.53-.22,3.8-1.06.53-.18,4.05-.53.4,0,4.46,0,3.48.53.93.18,3.53,1.06.75.22,3.4,1.59.66.3L234,40.83l.62.39,2.82,2.52.53.44,26.56,27.18,8.07,8.25-.53.17-11.86,4.55-7.9,3.39-4.24,1.81-11.56,5.65-.35.18-11.6,6.26-.75.49-4.55,2.69-6,3.66-6-3.66-4.41-2.69-.62-.49-9.08-6.26-.27-.18-7.23-5.65-2.34-1.81-4-3.39-5.21-4.55-.22-.17-8.56-8.25ZM138.55,97.65,146.31,90l5.87-5.69L154.56,82,157,84.33,162.77,90l8.65,7.63,7.36,5.82,1.68,1.33,8.07,5.73,1.33.93,9,5.74.66.39-7.72,5.78-3.17,2.38-4.11,3.36-6,4.94-.4.35-.62-.35-9.08-4.94-5.52-3.36L159,123.37l-8.52-5.78-.61-.39-7.59-5.74-1.24-.93-6.88-5.73-1.59-1.33Zm-37.19,36.4,6.35-6.22,6.84-6.66,4.06-4,3.17-3.14,3.62,3.14,4.63,4,8.61,6.66,8.91,6.22,3.44,2.16,5.78,3.62,5.51,3.09,4,2.25-4,4-5.69,5.69-.05.09-4.85,5.29-4.19,4.64-.13.13-.35-.13-9.84-4.64L127.21,155l-.13-.09-9.53-5.69-6-4-3.35-2.25-4.15-3.09-4.85-3.62Zm-25.59,43.1-2-1.28.09-3.75v-.57l.66-4.24.22-.75,1-3.35L77,160.43l.53-1.15,2.34-3.61,1.55-1.81,1.23-1.46L86,149.18l2.47-2.47,3.13,2.47,4.15,3.22,1.81,1.46,2.65,1.81,5.2,3.61,1.63,1.15,4.46,2.78,5.34,3.35,1.41.75,7.72,4.24,1,.57,7.76,3.75,2.6,1.28-3.26,4.37-3.88,5.25-1.11,1.5-2.2,3.26-3,4.33-2.47,3.7-.13.18-.49-.18-9.44-3.7-9.75-4.33-6.57-3.26-3-1.5-9.31-5.25ZM109,220.74l-.88,1.63-1.59-1.63L99,213l-3.31-3.35L92,205.87l-2.51-2.6L88,201.77l3,1.5,5.2,2.6,8.43,3.75,8.6,3.35Zm246-43.59,0,2.12-.31,2.07-.36,2.38-.39,1.2-.89,2.91,0,.17-1,2.08-.75,1.54-.18.44-1.1,1.68-1,1.46-.09.08-.31.49-2.95,3.35-1.33,1.33-4.76,4.63-4.19,4.1-3.58,3.53-2.91,2.82-2.16,2.12-2.34,2.3-5.64,5.51-5.21,5.07-4.68,4.59-4.1,4-3.44,3.44-2.82,2.73-4.11,4-3.44,3.35-2.78,2.74L286,257.49l-1.45,1.41-.88.88-.36.36-47.73,46.72-.49.48-2.91,2.47-.48.4-3.27,2.07-.53.31-3.57,1.59-.53.22-3.8,1.1-.48.14-4.1.53-.36,0-4.5,0-3.48-.53-.93-.14-3.48-1.1-.8-.22-3.35-1.59-.71-.31-3.09-2.07-.61-.4-2.83-2.47-.53-.48-45.7-46.72L145,260l10.58.18,10.64-.36,10.58-.88,10.5-1.41,9.75-2.07,9.62-2.74,9.36-3.35,9.13-4,5.87-2.73,5.47-3.44,5.07-4,4.54-4.59,4-5.07,3.4-5.51-1.37.79L248,223.21l-3,1.72-.31.18-1.76.92-.66.36-6.67,3.39-1.89.89-7.46,3.3-9.57,3.67-9.71,3.08-9.88,2.61-4.06.53-7.19,1-4.37.35-7,.62L169,246l-5.87.18L151.78,246l-2.69-.17-8.64-.62-3-.35-8.2-1-.53-.53-2.56-2.61-3-3.08L119.49,234l-3.26-3.3.57-.89,2.16-3.39.27-.4.7-1.15.71-1.1.53-.79,1.76-2.65,1.77-2.65.44-.66,2.6.66,9.71,2.65L149.89,223l5.42.79,7.15,1.1L175.12,226l12.71.4,12.75-.36,8.25-.92,1.63-.18,9.84-1.72,9.66-2.47,2.43-.79,7.06-2.3,6.08-2.12,5.83-2.82,5.42-3.53,5-4.1,4.5-4.63,1-1.33,2.56-3.35.4-.49-1.5.67-.18.08-7.63,3.53-9.53,3.71-2.34.79-7.37,2.43-3.22.88-6.62,1.81-3.66.79-6.35,1.37-3.18.49-6.92,1.1H211l-1.77,0-10.5.31L187.56,213l-1.89,0h-.22l-12.75-1.1-3.45-.49L159.81,210l-3.83-.79-8.92-1.81-3.31-.88-9.26-2.43.62-.79,2.95-3.71,2.78-3.53.62-.75,1-1.32.48-.57,1.15-1.33,2.07-2.47,2.6-3,2.78-3.22.27-.31.92.31,9.62,3.22,10.68,3,10.85,2.47,7.63,1.33,3.31.57,11,1.32L217,196l10-.08,8.64-.67,1.28-.08,9.89-1.46,7.76-1.68,2-.44,6.26-1.54,5.65-2.08.39-.17,5.78-2.91,1.81-1.2,3.58-2.38,2.38-2.07,2.56-2.12,2.16-2.34,2.2-2.38-6.83,2.34-2.83,1-7.14,2-2.7.75-7.45,1.68-2.52.57-7.85,1.33-2.25.35-8.51,1-1.64.18-3.13.17-7.06.4-6-.4-2.61-.17-2.73-.18-8.07-1-3.18-.35L199,180.72l-3.35-.57-7.59-1.68-3.44-.75-7.37-2-3.53-1-7.19-2.34L163,171.24l.92-.88,1.41-1.37.22-.22.93-.93,1.94-1.85,2.52-2.47,1.72-1.63,1.5-1.37L178,157l4.55-4.06,0,0,0,0L193,157l10.59,3.53,4.81,1.37,6,1.63,10.9,2.47,11,1.85,9.92.93,10,.22,10-.44L276,167.4l6.39-.93,1.68-.39,4.59-1.19,6-2.39,1-.53,4.67-2.47,1.9-1.32,3.44-2.38,1.19-1.06,3.66-3.18-5.82,1.37-4.15.93-8.25,1.45-1.81.36-10.14,1.23-5,.31-5.2.35-10.24.09-2.47-.09-7.76-.35-1.9-.31-7.33-1.23-1.89-.36L232,153.86l-4.41-.93-5-1.37-5.91-1.63L206,146.45l-2.78-1.06-.4-.18-1-.35-3.18-1.24-3.17-1.23.92-.67,3.89-2.91,4.58-3.44,1.24-.92,4.45-3,5.21-3.57L217,127l2,.88,8,3.57,7.86,3,2.38.92,10.41,3.44,10.59,2.91,3.49.67,6.26,1.23,9.93,1.24,7.19.35,2.73.18,10-.18,6.44-.22,6.4-1,6.22-1.72,6-2.42,1.85-1,3.8-2.07,2,2.07,1,1,2.38,2.42,1.68,1.72,1,1,.22.22.18.18,1,1.06,3.44,3.48,1.59,1.63,3.13,3.18.88,1.06,2,2.38.84,1.32,1.54,2.47.27.53,1,2.39.53,1.19.13.39.27.93.31,1.15.13.44.4,1.37.08.88.18,1.19.31,2.38Z"/><path class="cls-3" d="M384.28,168.86l-.08-1.06-.89-4.37-.35-1.94-1.06-3.31L381,155.4l-.93-2.2-1.59-3.67-.57-1-2.38-4.23-.22-.4-3.71-5.21-4.23-4.8L269.49,33.77,265.83,30l-3.18-3.22-2.6-2.65-.75-.79-1.37-1.24-1.5-1.41-.79-.75-.09,0-1-.93-1.1-.79-4.06-3-1.19-.75L244,11.93l-1.33-.62-4.5-2.07-1.41-.44L232,7.21l-1.54-.35L225.77,5.8,224,5.62l-4.58-.53L213,5l-.75.09-5.6.53-1.06.18-5.25,1.06-1.06.35-5,1.59-1.1.44-4.77,2.07-1.1.62-4.5,2.52-1,.75-4.19,3-1,.79-1,.93-.71.61-1.45,1.28-.67.62-1.36,1.32-2.61,2.52-3.17,3.13-3.75,3.66L62.27,130.61,58,135.33l-3.8,5.12-.48.83-2.47,4.15-.31.53L49,150l-.83,1.81-1,3.14-1,3-.49,2.25-.93,4-.13,1.36-.57,5,0,.57,0,5.61v.22l.49,5.29.13,1.1.88,4.37.35,1.9,1.06,3.35.88,2.78.93,2.21,1.59,3.66.53,1,2.38,4.19.22.4,3.71,5.25,4.23,4.81,97.94,100.1L163,321l3.13,3.22,2.6,2.65.8.79L170.8,329l1.54,1.37.8.75,0,0,1,.93,1.1.84,4,2.95,1.24.75,4.28,2.52,1.32.61,4.5,2.08,1.41.48,4.68,1.55,1.5.35,4.72,1.06,1.81.22,4.54.53,6.4,0,.75,0,5.65-.53,1-.22,5.25-1.06,1.11-.35,5-1.55,1.11-.48,4.76-2.08,1.06-.61,4.5-2.52,1-.75,4.23-2.95.93-.84,1-.93.09,0,.62-.58,1.45-1.28.71-.57,1.32-1.32,2.61-2.56,3.22-3.13,3.7-3.67,99.62-97.54,4.32-4.68,3.84-5.16.49-.79,2.42-4.15.36-.57,1.81-4,.83-1.81,1.06-3.08,1-3,.48-2.21.89-4,.17-1.42.58-4.94V180l.08-5.6v-.27Zm-14.38,5.56,0,5.6-.09.57-.66,4.94-.36,1.42-1.05,4-.84,2.21-1.19,3L364,199.25l-1,1.81-2.82,4-.4.57-3.75,4.15-.84.79L350,215.75l-4.81,4.68L245.53,318l-4.19,3.67-4.63,3.13-5,2.56-3.62,1.32-1.63.57-5.43,1.28-5,.58-.53,0-5.6,0-5.52-.75L199,329l-3.18-1.28-2-.79-4.9-2.65L184.25,321l-4.14-3.75-97.9-100.1-4.72-4.81-5.07-5.25-.4-.4-3.66-4.19-.66-1-2.47-3.66-1.15-2.21-1.41-2.78-1.19-3.35-.71-1.9-1.06-4.37-.22-1.1-.62-5.29v-.22l.05-5.61.08-.57.67-5,.35-1.36,1-4,.89-2.25,1.19-3,1.63-3.14,1-1.81,2.83-4,.4-.53,3.75-4.15.79-.83,5.25-5.12,4.81-4.72L183.2,33.06l4.23-3.66,4.63-3.13,5-2.52,3.57-1.32,1.63-.62,5.48-1.28,5.55-.61,5.56,0,5.56.75,5.43,1.41L233,23.36l2,.79,4.94,2.65L244.48,30l4.14,3.75,97.94,100.15,4.72,4.8,5.08,5.21.39.4,3.67,4.23.66,1,2.47,3.67,1.1,2.2,1.41,2.78,1.24,3.31.7,1.94,1,4.37.26,1.06.58,5.29Z"/><polygon class="cls-3" points="174.15 79.78 179.36 84.33 183.33 87.72 185.67 89.53 192.9 95.18 193.17 95.36 202.25 101.62 202.87 102.11 207.28 104.8 213.24 108.46 219.28 104.8 223.83 102.11 224.58 101.62 236.18 95.36 236.53 95.18 248.09 89.53 252.33 87.72 260.23 84.33 272.09 79.78 272.62 79.61 264.55 71.36 237.99 44.18 237.46 43.74 234.64 41.22 234.02 40.83 230.89 38.75 230.22 38.45 226.83 36.86 226.08 36.64 222.55 35.58 221.62 35.4 218.14 34.87 213.68 34.83 213.28 34.87 209.22 35.4 208.7 35.58 204.9 36.64 204.37 36.86 200.84 38.45 200.31 38.75 197.05 40.83 196.56 41.22 193.61 43.74 193.12 44.18 165.37 71.36 173.93 79.61 174.15 79.78"/><polygon class="cls-3" points="257.75 104 244.43 110.71 231.46 117.94 241.47 122.31 251.75 126.19 262.17 129.59 272.75 132.46 283.3 134 283.43 134 293.89 134.89 294.15 134.93 304.56 135.19 315.2 134.93 315.28 134.89 325.83 134 325.78 134 324.33 132.46 321.5 129.59 318.2 126.19 314.4 122.31 310.12 117.94 303.02 110.71 296.49 104 290.58 97.96 287.84 95.18 285.24 92.49 278.45 95.18 271.39 97.96 257.75 104"/><polygon class="cls-3" points="141.06 110.53 142.3 111.46 149.89 117.19 150.5 117.59 159.02 123.37 162.9 125.75 168.42 129.11 177.5 134.05 178.12 134.4 178.52 134.05 184.56 129.11 188.67 125.75 191.84 123.37 199.56 117.59 198.9 117.19 189.86 111.46 188.53 110.53 180.46 104.8 178.78 103.47 171.42 97.65 162.77 90.02 156.95 84.33 154.56 81.99 152.18 84.33 146.31 90.02 138.55 97.65 132.59 103.47 134.18 104.8 141.06 110.53"/><polygon class="cls-3" points="108.2 142.92 111.55 145.17 117.55 149.18 127.08 154.87 127.21 154.96 137.14 160.25 146.97 164.89 147.33 165.02 147.46 164.89 151.65 160.25 156.5 154.96 156.55 154.87 162.24 149.18 166.25 145.17 162.28 142.92 156.77 139.83 150.99 136.21 147.55 134.05 138.64 127.83 130.03 121.17 125.4 117.19 121.78 114.06 118.61 117.19 114.55 121.17 107.71 127.83 101.36 134.05 99.2 136.21 104.05 139.83 108.2 142.92"/><polygon class="cls-3" points="354.5 171.24 354.42 170.36 354.02 168.99 353.89 168.55 353.58 167.4 353.31 166.47 353.18 166.08 352.65 164.89 351.64 162.5 351.37 161.97 349.83 159.5 348.99 158.18 347 155.8 346.12 154.74 342.99 151.56 341.4 149.93 337.96 146.44 336.95 145.39 336.77 145.21 336.55 144.99 335.58 143.97 333.9 142.25 331.52 139.83 330.5 138.81 328.48 136.74 324.68 138.81 322.83 139.83 316.87 142.25 310.65 143.97 304.25 144.99 297.81 145.21 287.84 145.39 285.11 145.21 277.92 144.86 267.99 143.62 261.73 142.39 258.24 141.72 247.65 138.81 237.24 135.37 234.86 134.44 227 131.4 219.02 127.83 216.99 126.94 215.71 127.83 210.5 131.4 206.05 134.44 204.81 135.37 200.22 138.81 196.34 141.72 195.42 142.39 198.59 143.62 201.77 144.86 202.78 145.21 203.18 145.39 205.96 146.44 216.68 149.93 222.59 151.56 227.58 152.93 231.99 153.86 238.61 155.31 240.5 155.67 247.83 156.9 249.72 157.21 257.49 157.56 259.96 157.65 270.2 157.56 275.4 157.21 280.39 156.9 290.53 155.67 292.34 155.31 300.59 153.86 304.74 152.93 310.56 151.56 306.9 154.74 305.71 155.8 302.27 158.18 300.37 159.5 295.7 161.97 294.68 162.5 288.64 164.89 284.05 166.08 282.37 166.47 275.98 167.4 266.09 168.55 256.12 168.99 246.15 168.77 236.22 167.84 225.24 165.99 214.34 163.52 208.39 161.89 203.58 160.52 192.99 156.99 182.67 152.93 182.62 152.89 182.58 152.93 178.03 156.99 174.11 160.52 172.61 161.89 170.89 163.52 168.37 165.99 166.43 167.84 165.5 168.77 165.28 168.99 163.87 170.36 162.95 171.24 166.52 172.43 173.71 174.77 177.24 175.74 184.61 177.72 188.05 178.47 195.64 180.15 198.99 180.72 206.8 182.05 209.97 182.4 218.05 183.37 220.78 183.55 223.39 183.72 229.34 184.12 236.4 183.72 239.53 183.55 241.17 183.37 249.68 182.4 251.93 182.05 259.78 180.72 262.3 180.15 269.75 178.47 272.45 177.72 279.59 175.74 282.42 174.77 289.25 172.43 287.05 174.81 284.89 177.15 282.33 179.27 279.95 181.34 276.37 183.72 274.56 184.92 268.78 187.83 268.39 188 262.74 190.08 256.48 191.62 254.49 192.06 246.72 193.74 236.84 195.19 235.56 195.28 226.92 195.94 216.95 196.03 205.87 195.28 194.84 193.96 191.53 193.39 183.9 192.06 173.05 189.59 162.37 186.59 152.75 183.37 151.83 183.06 151.56 183.37 148.78 186.59 146.18 189.59 144.11 192.06 142.96 193.39 142.47 193.96 141.46 195.28 140.84 196.03 138.06 199.56 135.11 203.27 134.49 204.06 143.75 206.49 147.06 207.37 155.97 209.18 159.81 209.97 169.25 211.34 172.7 211.83 185.45 212.93 185.67 212.93 187.56 212.97 198.68 213.28 209.18 212.97 210.95 212.93 211.7 212.93 218.62 211.83 221.8 211.34 228.15 209.97 231.81 209.18 238.43 207.37 241.65 206.49 249.02 204.06 251.36 203.27 260.89 199.56 268.52 196.03 268.7 195.94 270.2 195.28 269.8 195.77 267.24 199.12 266.27 200.44 261.77 205.08 256.78 209.18 251.36 212.71 245.53 215.53 239.45 217.65 232.39 219.94 229.96 220.74 220.3 223.21 210.46 224.93 208.83 225.11 200.58 226.03 187.83 226.39 175.12 225.99 162.46 224.84 155.31 223.74 149.89 222.94 137.45 220.3 127.74 217.65 125.14 216.99 124.7 217.65 122.93 220.3 121.17 222.94 120.64 223.74 119.93 224.84 119.22 225.99 118.96 226.39 116.8 229.78 116.22 230.67 119.49 233.97 123.06 237.64 126.11 240.72 128.67 243.33 129.2 243.86 137.4 244.83 140.45 245.18 149.09 245.8 151.78 245.97 163.12 246.15 168.99 245.97 174.46 245.8 181.43 245.18 185.8 244.83 192.99 243.86 197.05 243.33 206.93 240.72 216.64 237.64 226.21 233.97 233.67 230.67 235.56 229.78 242.22 226.39 242.89 226.03 244.65 225.11 244.96 224.93 247.96 223.21 252.11 220.74 253.47 219.94 250.08 225.46 246.06 230.53 241.52 235.12 236.45 239.14 230.97 242.58 225.11 245.31 215.97 249.33 206.62 252.68 197 255.42 187.25 257.49 176.75 258.9 166.17 259.78 155.53 260.14 144.95 259.96 145.08 260.14 190.78 306.86 191.31 307.34 194.14 309.81 194.75 310.21 197.84 312.28 198.55 312.59 201.9 314.18 202.7 314.4 206.18 315.5 207.11 315.64 210.59 316.17 215.09 316.21 215.45 316.17 219.55 315.64 220.03 315.5 223.83 314.4 224.36 314.18 227.93 312.59 228.46 312.28 231.72 310.21 232.21 309.81 235.12 307.34 235.61 306.86 283.34 260.14 283.7 259.78 284.58 258.9 286.03 257.49 288.15 255.42 290.93 252.68 294.37 249.33 298.48 245.31 301.3 242.58 304.74 239.14 308.84 235.12 313.52 230.53 318.73 225.46 324.37 219.94 326.71 217.65 328.87 215.53 331.78 212.71 335.36 209.18 339.55 205.08 344.31 200.44 345.64 199.12 348.59 195.77 348.9 195.28 348.99 195.19 349.96 193.74 351.06 192.06 351.24 191.62 351.99 190.08 352.96 188 353 187.83 353.89 184.92 354.28 183.72 354.64 181.34 354.95 179.27 354.99 177.15 354.99 174.81 354.68 172.43 354.5 171.24"/><polygon class="cls-3" points="95.05 188.27 101.62 191.53 111.37 195.86 120.81 199.56 121.3 199.74 121.43 199.56 123.9 195.86 126.86 191.53 129.06 188.27 130.17 186.77 134.05 181.52 137.31 177.15 134.71 175.87 126.95 172.12 125.93 171.55 118.21 167.31 116.8 166.56 111.46 163.21 107 160.43 105.37 159.28 100.17 155.67 97.52 153.86 95.71 152.4 91.56 149.18 88.43 146.71 85.96 149.18 82.65 152.4 81.42 153.86 79.87 155.67 77.53 159.28 77 160.43 75.72 163.21 74.71 166.56 74.49 167.31 73.83 171.55 73.83 172.12 73.74 175.87 75.77 177.15 82.78 181.52 92.09 186.77 95.05 188.27"/><polygon class="cls-3" points="96.28 205.87 91.08 203.27 88.03 201.77 89.49 203.27 92 205.87 95.67 209.62 98.97 212.97 106.56 220.74 108.15 222.37 109.03 220.74 113.31 212.97 104.71 209.62 96.28 205.87"/><path class="cls-3" d="M5,459.22V370.1H25v36.37H54.75L84.13,370.1H109L72.25,414.6,109,459.22H84.13l-29.5-36.5H25v36.5Z"/><path class="cls-3" d="M119,459.22V369.85h20V443h65.37v16.25Z"/><path class="cls-3" d="M214,459.85V443.6l71.87.12q5.5,0,8.44-2.56t2.94-8.31q0-5.75-2.94-8.31T285.87,422H241.12q-13.87,0-21.56-6.68t-7.69-19.69q0-13,7.69-19.69t21.56-6.69h70.25v16.25l-68.12-.12q-5.38,0-8.38,2.44c-2,1.62-3,4.23-3,7.81s1,6.19,3,7.81,4.79,2.44,8.38,2.44H288q13.88,0,21.56,6.81t7.69,20.19q0,13.25-7.69,20.12T288,459.85Z"/><path class="cls-3" d="M329.75,459.22V370.1l75.25-.25q14.87,0,22.06,6.19t7.19,18.56q0,12.38-8.25,18.12a19.45,19.45,0,0,1,8.12,7.94q2.63,4.93,2.63,12.69,0,12.63-7.19,19.19T407.5,459.1Zm72.87-73.37H349.75v20h52.87q11.37,0,11.38-10.25Q414,385.85,402.62,385.85Zm2.5,36H349.75V443.1h55.37q11.37,0,11.38-10.75Q416.5,421.85,405.12,421.85Z"/></g></g></svg>