<svg xmlns="http://www.w3.org/2000/svg" viewBox="0 0 755.61 188.26"><defs><style>.cls-1{fill:#fff;}.cls-2{fill:none;}.cls-3{fill:#030c69;}</style></defs><g id="Layer_2" data-name="Layer 2"><g id="Layer_1-2" data-name="Layer 1"><path class="cls-1" d="M433.78,66.67v2.2l0,.23L433.47,71l-.14.56-.41,1.58-.33.87-.47,1.18-.66,1.21-.39.72L430,78.74l-.15.22-1.48,1.63-.33.32-2.06,2L424,84.78l-39.2,38.38-1.65,1.44-1.82,1.24-2,1-1.43.53-.64.22-2.14.5-2,.23-.21,0-2.21,0-2.17-.29-2.13-.54-1.25-.51-.8-.31-1.93-1-1.8-1.27-1.64-1.47-38.52-39.4-1.86-1.89-2-2.07-.15-.15-1.44-1.65-.26-.38-1-1.44-.45-.87-.55-1.1-.47-1.32-.28-.74-.42-1.72-.08-.44-.25-2.08v-.09l0-2.2,0-.23.26-2,.13-.54.4-1.58.35-.88.47-1.16.64-1.24.4-.71,1.11-1.58.16-.21,1.47-1.63.32-.33,2.06-2,1.9-1.86L360.31,11,362,9.6l1.82-1.23,2-1,1.41-.52.64-.25,2.15-.5,2.19-.24,2.19,0,2.18.29,2.14.56,1.23.48.8.31,1.95,1,1.78,1.26,1.64,1.48L424.6,50.73l1.86,1.89,2,2.05.16.16,1.44,1.66.26.39,1,1.44.44.87.55,1.09.49,1.3.28.77.4,1.71.1.42.23,2.08Z"/><path class="cls-2" d="M433.21,64.06l-.4-1.71-.28-.77-.48-1.3-.56-1.09-.43-.87-1-1.44-.27-.39-1.44-1.66-.15-.16-2-2.05-1.86-1.89L385.83,11.32,384.2,9.84l-1.79-1.26-1.94-1-.8-.31-1.24-.48-2.13-.56-2.19-.29-2.19,0-2.18.24-2.16.5-.64.25-1.41.52-2,1L361.75,9.6,360.08,11l-39.2,38.39L319,51.29l-2.07,2-.31.33-1.48,1.63-.15.21-1.11,1.58-.4.71L312.82,59l-.46,1.16L312,61l-.4,1.58-.14.54-.26,2,0,.23v2.29l.24,2.08.09.44.41,1.72.28.74.47,1.32.56,1.1.45.87,1,1.44.26.38,1.44,1.65.16.15,2,2.07,1.86,1.89,38.53,39.4,1.63,1.47,1.81,1.27,1.92,1,.8.31,1.25.51,2.14.54,2.17.29,2.2,0,.21,0,2-.23,2.13-.5.65-.22,1.42-.53,2-1L383,124.6l1.64-1.44,39.21-38.38,1.89-1.84,2.07-2,.33-.32L429.58,79l.16-.22,1.11-1.58.38-.72.66-1.21.47-1.18.33-.87.42-1.58.14-.56.26-1.94,0-.23,0-2.2,0-.11-.23-2.08Zm-33-29.63,1,1.06,1.08,1.09L404.67,39l2.57,2.64L410,44.45l1.69,1.71,1.49,1.53,1.3,1.34,1.11,1.13.58.61h0l-4.15.34,0,0-4.19.1-4.09-.1-.11,0-4.11-.34h0l-4.15-.61L391.16,49l-4.1-1.34-4-1.53-3.94-1.71,5.1-2.85L389.42,39l5.37-2.38,2.78-1.09ZM364,15.42l.19-.18,1.16-1,.19-.15,1.29-.82.21-.12,1.39-.62.2-.09,1.5-.42.21-.07,1.59-.21h1.91l1.37.21.37.07,1.39.42.29.09,1.34.62.26.12,1.23.82.25.15,1.11,1,.21.18L392.1,26.11l3.18,3.25-.21.07-4.67,1.79-3.11,1.33-1.67.72-4.55,2.22-.14.07L376.37,38l-.3.19-1.79,1.06-2.37,1.44-2.35-1.44-1.73-1.06-.25-.19L364,35.56l-.11-.07-2.84-2.22-.93-.72-1.56-1.33-2.05-1.79-.08-.07-3.37-3.25Zm-21.48,21,3.06-3,2.31-2.24.94-.92.93.92L352,33.46l3.41,3,2.9,2.29.66.52,3.17,2.26.52.36,3.56,2.26.26.16-3,2.27-1.25.94-1.62,1.32-2.38,1.94-.15.14-.25-.14-3.57-1.94-2.17-1.32-1.53-.94-3.35-2.27-.25-.16-3-2.26-.49-.36-2.71-2.26-.62-.52ZM327.88,50.78l2.5-2.45,2.69-2.62,1.6-1.56,1.25-1.23,1.42,1.23,1.82,1.56,3.39,2.62,3.5,2.45,1.36.85,2.27,1.43,2.17,1.21,1.57.89-1.58,1.58L349.6,59l0,0-1.91,2.09L346,62.92l0,0-.14,0L342,61.1,338.05,59,338,59l-3.75-2.24-2.36-1.58-1.32-.89-1.63-1.21L327,51.63Zm-10.07,17-.8-.51,0-1.47v-.23l.26-1.67.09-.29.4-1.32.5-1.09.21-.46.92-1.42.61-.71.49-.57,1.3-1.27,1-1,1.23,1L325.65,58l.72.57,1,.71,2,1.42.64.46,1.75,1.09,2.1,1.32.56.29,3,1.67.4.23L341,67.24l1,.51-1.29,1.71-1.53,2.07-.43.59-.87,1.29-1.16,1.7-1,1.46-.06.06-.19-.06-3.71-1.46L328,73.41l-2.59-1.29-1.16-.59-3.66-2.07ZM330.9,84.9l-.35.64-.62-.64-3-3.06-1.3-1.32-1.44-1.47-1-1-.58-.59,1.2.59,2.05,1,3.32,1.47,3.38,1.32Zm96.79-17.15,0,.83-.12.81-.14.94-.15.47L426.91,72l0,.07-.38.81-.3.61-.07.17-.43.66-.38.58,0,0-.12.19L424,76.39l-.52.52-1.88,1.83L420,80.35l-1.4,1.39-1.15,1.11-.85.83-.92.91-2.22,2.17-2.05,2-1.84,1.81-1.62,1.58-1.35,1.35-1.11,1.08-1.62,1.58-1.35,1.32-1.09,1.07-.84.82-.57.56-.35.34-.14.14-18.78,18.39-.19.19-1.15,1-.19.16-1.28.81-.21.13-1.41.62-.21.09-1.49.43-.19,0-1.62.21-.13,0-1.78,0-1.37-.21-.36,0-1.37-.43-.32-.09-1.32-.62-.27-.13-1.22-.81-.24-.16-1.11-1-.21-.19-18-18.39-.05-.07,4.17.07,4.18-.14,4.17-.34,4.13-.56,3.84-.82,3.78-1.07L373,96.15l3.6-1.58,2.31-1.08L381,92.14l2-1.58,1.78-1.81,1.58-2,1.34-2.17-.54.31-1.63,1-1.18.68-.12.07-.7.36-.26.14-2.62,1.34-.75.35L377,90.11l-3.77,1.44-3.82,1.21-3.89,1-1.59.21-2.83.38-1.72.14-2.74.24-2.16.07-2.31.07-4.46-.07-1.06-.07-3.4-.24-1.2-.14L338.83,94l-.21-.21-1-1-1.2-1.21L335,90.11l-1.28-1.3.22-.35.85-1.34.11-.16.28-.45.27-.43.21-.31.7-1,.69-1,.17-.26,1,.26,3.82,1,4.89,1,2.14.31,2.81.43,5,.45,5,.16,5-.14,3.25-.36.64-.07,3.87-.68,3.81-1,.95-.31,2.78-.91,2.39-.83,2.3-1.11L389,80.35l2-1.61,1.77-1.83.39-.52,1-1.32.16-.19-.59.26-.07,0-3,1.39L386.91,78l-.92.32-2.9,1-1.27.35-2.6.71-1.45.31-2.5.54-1.25.19-2.72.44h-1l-4.13.12-4.38-.12H361l-5-.44-1.35-.19-3.72-.54-1.51-.31-3.51-.71-1.3-.35-3.64-1,.24-.32,1.16-1.45,1.1-1.39.24-.3.4-.52.19-.23.45-.52.82-1,1-1.18,1.09-1.27.11-.12.36.12,3.79,1.27,4.2,1.18,4.27,1,3,.52,1.31.23,4.34.52,4.35.3,3.93,0,3.4-.26.5,0,3.89-.58,3.06-.66.78-.17,2.47-.61,2.22-.81.15-.07L396,70.8l.71-.47,1.41-.94.93-.81,1-.83.85-.92.87-.94-2.69.92-1.11.38-2.81.78-1.06.3-2.94.66-1,.22-3.09.52-.88.14-3.35.38-.65.07-1.23.07-2.78.16-2.34-.16-1-.07-1.08-.07-3.18-.38-1.25-.14-3.07-.52L365,68.93l-3-.66-1.35-.3-2.9-.78-1.39-.38-2.83-.92-1.41-.47.37-.35.55-.54.09-.08.37-.37.76-.73,1-1,.68-.64.59-.54,1.54-1.39,1.79-1.6h0l4.07,1.6,4.16,1.39,1.9.54,2.34.64,4.29,1,4.32.73,3.91.37,3.92.08,3.93-.17,3.88-.45,2.52-.37.66-.15,1.81-.47L404,62l.4-.21,1.84-1,.74-.52,1.36-.94.47-.41,1.44-1.25-2.3.53-1.63.37-3.24.57-.72.14-4,.49-2,.12-2.05.14-4,0-1,0-3.06-.14-.74-.12-2.88-.49-.75-.14-2.61-.57-1.73-.37-2-.53L373.26,57,369,55.66,368,55.24l-.16-.06-.4-.14-1.25-.49-1.25-.49.37-.26,1.52-1.14,1.81-1.36.49-.36,1.75-1.2,2.05-1.41.5-.34.8.34,3.14,1.41,3.09,1.2.94.36,4.1,1.36,4.17,1.14,1.37.26,2.46.49,3.91.49,2.83.14,1.07.06,3.93-.06,2.53-.09,2.52-.4,2.45-.68,2.34-.95.73-.4,1.49-.82.8.82.4.4.94.95.66.68.38.4.09.09.07.06.4.42L422.34,57l.63.65,1.23,1.25.35.41.78.94.33.52.61,1,.1.21.4.94.21.47,0,.15.1.37.13.45.05.17.15.54,0,.35.07.47.12.94Z"/><path class="cls-3" d="M439.22,64.48l0-.42-.34-1.71-.14-.77-.42-1.3-.35-1.09-.36-.87-.63-1.44-.22-.39-.94-1.66-.09-.16-1.46-2.05-1.66-1.89L394,11.32,392.6,9.84l-1.25-1.26-1-1-.3-.31-.54-.48-.59-.56-.31-.29,0,0-.39-.37-.43-.31L386.14,4l-.47-.29-1.68-1-.52-.25-1.77-.81-.56-.18L379.3.87l-.61-.14L376.84.31l-.7-.07L374.34,0l-2.52,0-.3,0-2.2.21-.42.07-2.06.42-.42.14-2,.62-.43.18-1.88.81-.43.25-1.77,1-.4.29-1.65,1.18-.38.31-.4.37-.28.24-.57.5-.26.25-.54.52-1,1L353.17,9.6,351.7,11,312.49,49.43l-1.7,1.86-1.49,2-.19.33-1,1.63-.12.21-.73,1.58-.33.71-.4,1.24-.4,1.16L306,61l-.37,1.58-.05.54-.23,2v.23l0,2.2v.09l.19,2.08,0,.44.35,1.72.14.74.42,1.32.34,1.1.37.87.62,1.44.21.38.94,1.65.08.15,1.46,2.07,1.67,1.89,38.54,39.4,1.44,1.47,1.24,1.27,1,1,.31.31.52.51.61.54.31.29,0,0,.4.36.44.33,1.58,1.17.48.29,1.69,1,.52.24,1.77.82.55.19,1.84.61.59.14,1.86.41.71.09,1.79.21,2.52,0,.29,0,2.23-.21.4-.09,2.06-.41.44-.14,2-.61.44-.19,1.87-.82.42-.24,1.77-1,.4-.29,1.67-1.17.36-.33.4-.36,0,0,.24-.23.57-.5.28-.22.52-.53,1-1,1.27-1.24,1.46-1.44,39.2-38.38,1.7-1.84,1.52-2,.19-.32.95-1.63.14-.22.71-1.58.33-.72.42-1.21.4-1.18.19-.87.35-1.58.07-.56.22-1.94v-.23l0-2.2v-.11Zm-5.66,2.19,0,2.2,0,.23L433.25,71l-.14.56-.42,1.58-.33.87-.47,1.18-.66,1.21-.38.72-1.11,1.58-.16.22-1.47,1.63-.33.32-2.07,2-1.89,1.84-39.21,38.38L383,124.6l-1.83,1.24-2,1-1.42.53-.65.22-2.13.5-2,.23-.21,0-2.2,0-2.17-.29-2.14-.54L365,127l-.8-.31-1.92-1-1.81-1.27-1.63-1.47-38.53-39.4-1.86-1.89-2-2.07-.16-.15-1.44-1.65-.26-.38-1-1.44-.45-.87-.56-1.1-.47-1.32-.28-.74-.41-1.72-.09-.44-.24-2.08V65.35l0-.23.26-2,.14-.54L312,61l.35-.88.46-1.16.65-1.24.4-.71L315,55.47l.15-.21,1.48-1.63.31-.33,2.07-2,1.89-1.86L360.08,11l1.67-1.44,1.82-1.23,2-1,1.41-.52.64-.25,2.16-.5,2.18-.24,2.19,0,2.19.29,2.13.56,1.24.48.8.31,1.94,1,1.79,1.26,1.63,1.48,38.54,39.41,1.86,1.89,2,2.05.15.16,1.44,1.66.27.39,1,1.44.43.87.56,1.09.48,1.3.28.77.4,1.71.1.42.23,2.08Z"/><polygon class="cls-3" points="356.52 29.43 358.57 31.22 360.13 32.55 361.06 33.27 363.9 35.49 364.01 35.56 367.58 38.02 367.83 38.21 369.56 39.27 371.91 40.71 374.29 39.27 376.07 38.21 376.37 38.02 380.93 35.56 381.07 35.49 385.62 33.27 387.29 32.55 390.4 31.22 395.07 29.43 395.27 29.36 392.1 26.11 381.65 15.42 381.44 15.24 380.33 14.25 380.08 14.1 378.85 13.28 378.59 13.16 377.25 12.54 376.96 12.45 375.57 12.03 375.2 11.96 373.83 11.75 372.08 11.74 371.92 11.75 370.33 11.96 370.12 12.03 368.63 12.45 368.42 12.54 367.03 13.16 366.82 13.28 365.53 14.1 365.34 14.25 364.18 15.24 363.99 15.42 353.07 26.11 356.44 29.36 356.52 29.43"/><polygon class="cls-3" points="389.42 38.96 384.18 41.6 379.08 44.45 383.02 46.16 387.06 47.69 391.16 49.03 395.33 50.16 399.48 50.77 399.53 50.77 403.64 51.11 403.75 51.13 407.85 51.23 412.03 51.13 412.06 51.11 416.21 50.77 416.2 50.77 415.62 50.16 414.51 49.03 413.21 47.69 411.72 46.16 410.03 44.45 407.24 41.6 404.67 38.96 402.34 36.58 401.26 35.49 400.24 34.43 397.57 35.49 394.79 36.58 389.42 38.96"/><polygon class="cls-3" points="343.5 41.53 343.99 41.89 346.98 44.15 347.22 44.31 350.57 46.58 352.1 47.52 354.27 48.84 357.84 50.78 358.09 50.92 358.24 50.78 360.62 48.84 362.24 47.52 363.49 46.58 366.52 44.31 366.26 44.15 362.7 41.89 362.18 41.53 359.01 39.27 358.35 38.75 355.45 36.46 352.04 33.46 349.75 31.22 348.81 30.3 347.88 31.22 345.57 33.46 342.51 36.46 340.17 38.75 340.79 39.27 343.5 41.53"/><polygon class="cls-3" points="330.57 54.27 331.89 55.16 334.25 56.74 338 58.98 338.05 59.01 341.96 61.1 345.83 62.92 345.97 62.97 346.02 62.92 347.67 61.1 349.58 59.01 349.6 58.98 351.84 56.74 353.42 55.16 351.85 54.27 349.68 53.06 347.41 51.63 346.06 50.78 342.55 48.34 339.16 45.71 337.34 44.15 335.92 42.92 334.67 44.15 333.07 45.71 330.38 48.34 327.88 50.78 327.03 51.63 328.94 53.06 330.57 54.27"/><polygon class="cls-3" points="427.5 65.42 427.46 65.07 427.31 64.53 427.25 64.36 427.13 63.91 427.03 63.54 426.98 63.39 426.77 62.92 426.37 61.98 426.27 61.77 425.66 60.8 425.33 60.28 424.55 59.34 424.2 58.93 422.97 57.68 422.34 57.03 420.99 55.66 420.59 55.24 420.52 55.17 420.43 55.09 420.05 54.69 419.39 54.01 418.45 53.06 418.05 52.66 417.25 51.84 415.76 52.66 415.03 53.06 412.69 54.01 410.24 54.69 407.72 55.09 405.19 55.17 401.26 55.24 400.19 55.17 397.36 55.04 393.45 54.55 390.99 54.06 389.62 53.8 385.45 52.66 381.35 51.3 380.41 50.94 377.32 49.74 374.18 48.34 373.38 47.99 372.88 48.34 370.83 49.74 369.08 50.94 368.59 51.3 366.78 52.66 365.26 53.8 364.89 54.06 366.14 54.55 367.39 55.04 367.79 55.17 367.95 55.24 369.04 55.66 373.26 57.03 375.59 57.68 377.55 58.21 379.29 58.58 381.89 59.15 382.64 59.29 385.52 59.78 386.26 59.9 389.32 60.04 390.29 60.07 394.32 60.04 396.37 59.9 398.33 59.78 402.32 59.29 403.04 59.15 406.28 58.58 407.91 58.21 410.21 57.68 408.76 58.93 408.3 59.34 406.94 60.28 406.2 60.8 404.36 61.77 403.96 61.98 401.58 62.92 399.77 63.39 399.11 63.54 396.59 63.91 392.7 64.36 388.78 64.53 384.86 64.45 380.95 64.08 376.63 63.35 372.34 62.38 370 61.74 368.1 61.2 363.94 59.81 359.87 58.21 359.86 58.2 359.84 58.21 358.05 59.81 356.51 61.2 355.92 61.74 355.24 62.38 354.25 63.35 353.49 64.08 353.12 64.45 353.03 64.53 352.48 65.07 352.11 65.42 353.52 65.89 356.35 66.81 357.74 67.19 360.64 67.97 361.99 68.27 364.98 68.93 366.3 69.15 369.37 69.67 370.62 69.81 373.8 70.19 374.88 70.26 375.9 70.33 378.24 70.49 381.02 70.33 382.25 70.26 382.9 70.19 386.25 69.81 387.13 69.67 390.22 69.15 391.21 68.93 394.15 68.27 395.21 67.97 398.02 67.19 399.13 66.81 401.82 65.89 400.95 66.83 400.1 67.75 399.1 68.58 398.16 69.39 396.75 70.33 396.04 70.8 393.76 71.95 393.61 72.02 391.39 72.83 388.92 73.44 388.14 73.61 385.08 74.27 381.19 74.85 380.69 74.88 377.29 75.14 373.37 75.18 369.01 74.88 364.67 74.36 363.36 74.13 360.36 73.61 356.09 72.64 351.89 71.46 348.1 70.19 347.74 70.07 347.63 70.19 346.54 71.46 345.52 72.64 344.7 73.61 344.25 74.13 344.06 74.36 343.66 74.88 343.42 75.18 342.32 76.56 341.16 78.02 340.92 78.34 344.56 79.29 345.86 79.64 349.37 80.35 350.88 80.66 354.6 81.2 355.95 81.39 360.97 81.83 361.06 81.83 361.8 81.84 366.18 81.97 370.31 81.84 371 81.83 371.3 81.83 374.02 81.39 375.27 81.2 377.77 80.66 379.21 80.35 381.82 79.64 383.09 79.29 385.99 78.34 386.91 78.02 390.66 76.56 393.66 75.18 393.73 75.14 394.32 74.88 394.16 75.07 393.16 76.39 392.77 76.91 391 78.73 389.04 80.35 386.91 81.74 384.62 82.85 382.22 83.68 379.44 84.59 378.49 84.9 374.68 85.87 370.81 86.55 370.17 86.62 366.92 86.98 361.91 87.12 356.91 86.97 351.92 86.51 349.11 86.08 346.98 85.77 342.08 84.72 338.26 83.68 337.24 83.42 337.06 83.68 336.37 84.72 335.67 85.77 335.46 86.08 335.19 86.51 334.91 86.97 334.8 87.12 333.95 88.46 333.73 88.81 335.01 90.11 336.42 91.55 337.62 92.76 338.62 93.79 338.83 94 342.06 94.38 343.26 94.52 346.66 94.76 347.72 94.83 352.18 94.9 354.49 94.83 356.64 94.76 359.39 94.52 361.11 94.38 363.94 94 365.53 93.79 369.42 92.76 373.24 91.55 377.01 90.11 379.94 88.81 380.69 88.46 383.31 87.12 383.57 86.98 384.27 86.62 384.39 86.55 385.57 85.87 387.2 84.9 387.74 84.59 386.4 86.76 384.82 88.75 383.04 90.56 381.04 92.14 378.89 93.49 376.58 94.57 372.98 96.15 369.3 97.47 365.52 98.55 361.68 99.36 357.55 99.92 353.38 100.26 349.2 100.4 345.03 100.33 345.08 100.4 363.07 118.79 363.28 118.98 364.39 119.95 364.63 120.11 365.85 120.92 366.13 121.05 367.44 121.67 367.76 121.76 369.13 122.19 369.49 122.24 370.86 122.45 372.63 122.47 372.77 122.45 374.39 122.24 374.58 122.19 376.07 121.76 376.28 121.67 377.69 121.05 377.9 120.92 379.18 120.11 379.37 119.95 380.52 118.98 380.71 118.79 399.49 100.4 399.63 100.26 399.98 99.92 400.55 99.36 401.39 98.55 402.48 97.47 403.83 96.15 405.45 94.57 406.56 93.49 407.91 92.14 409.53 90.56 411.37 88.75 413.42 86.76 415.64 84.59 416.56 83.68 417.41 82.85 418.56 81.74 419.96 80.35 421.61 78.73 423.49 76.91 424.01 76.39 425.17 75.07 425.29 74.88 425.33 74.85 425.71 74.27 426.14 73.61 426.21 73.44 426.51 72.83 426.89 72.02 426.91 71.95 427.25 70.8 427.41 70.33 427.55 69.39 427.67 68.58 427.69 67.75 427.69 66.83 427.57 65.89 427.5 65.42"/><polygon class="cls-3" points="325.39 72.12 327.98 73.41 331.82 75.11 335.53 76.56 335.72 76.64 335.78 76.56 336.75 75.11 337.91 73.41 338.78 72.12 339.21 71.53 340.74 69.46 342.03 67.75 341 67.24 337.95 65.77 337.55 65.54 334.51 63.87 333.95 63.58 331.85 62.26 330.1 61.16 329.46 60.71 327.41 59.29 326.37 58.58 325.65 58.01 324.02 56.74 322.79 55.77 321.82 56.74 320.52 58.01 320.03 58.58 319.42 59.29 318.5 60.71 318.29 61.16 317.79 62.26 317.39 63.58 317.3 63.87 317.04 65.54 317.04 65.77 317.01 67.24 317.81 67.75 320.57 69.46 324.23 71.53 325.39 72.12"/><polygon class="cls-3" points="325.88 79.05 323.83 78.02 322.63 77.43 323.21 78.02 324.2 79.05 325.64 80.52 326.94 81.84 329.93 84.9 330.55 85.54 330.9 84.9 332.58 81.84 329.2 80.52 325.88 79.05"/><path class="cls-3" d="M0,188.05V158.11H6.72v12.22h10l9.87-12.22h8.35L22.6,173.06l12.34,15H26.59l-9.92-12.26h-10v12.26Z"/><path class="cls-3" d="M38.3,188.05V158H71.23v5.46H45v6.64H68.79v5.46H45v7H71.23v5.46Z"/><path class="cls-3" d="M75.85,188.05V158h5.63l13.9,9.75h.21l13.9-9.75h5.63v30H108.4V166.42l-9.53,6.39v15.24H92.15V172.81l-9.58-6.39v21.63Z"/><path class="cls-3" d="M133.14,188.26a17.79,17.79,0,0,1-7.22-1.2,7.28,7.28,0,0,1-3.79-3.63A14.62,14.62,0,0,1,121,177.3V158h6.72V177.3c0,2.13.5,3.58,1.49,4.35s2.68,1.15,5.06,1.15h8.11q3.57,0,5.06-1.15c1-.77,1.49-2.22,1.49-4.35V158h6.72V177.3a14.62,14.62,0,0,1-1.13,6.13,7.29,7.29,0,0,1-3.78,3.63,17.88,17.88,0,0,1-7.23,1.2Z"/><path class="cls-3" d="M161.53,188.05V158h6.8l21.26,21.59V158h6.72v30H189.5l-21.25-21.63v21.63Z"/><path class="cls-3" d="M217.64,188.26q-8.31,0-12.72-3.84T200.51,173q0-7.53,4.41-11.39t12.72-3.82l15.12.09v5.37H218.1q-5.46,0-8.1,2.31T207.35,173c0,3.41.88,5.9,2.65,7.45s4.46,2.33,8.1,2.33h15.08v5.46Z"/><path class="cls-3" d="M234.86,188.05l13.53-30h10.37l13.52,30H265l-2.86-6.34H245l-2.86,6.34Zm12.6-11.8h12.22l-5.83-13h-.55Z"/><path class="cls-3" d="M275.64,188.05V158.11h6.72v12.22h10l9.87-12.22h8.36l-12.35,14.95,12.35,15h-8.36l-9.91-12.26h-10v12.26Z"/><path class="cls-3" d="M328.65,188.05V158h6.72v24.57h22v5.46Z"/><path class="cls-3" d="M359,188.05l13.53-30h10.37l13.52,30h-7.3l-2.86-6.34H369.18l-2.86,6.34Zm12.6-11.8h12.22l-5.83-13h-.55Z"/><path class="cls-3" d="M399.79,188.05V158h6.81l21.25,21.59V158h6.72v30h-6.8l-21.26-21.63v21.63Z"/><path class="cls-3" d="M437.93,188.05l13.52-30h10.38l13.52,30H468l-2.85-6.34h-17.1l-2.85,6.34Zm12.6-11.8h12.22l-5.84-13h-.54Z"/><path class="cls-3" d="M478.71,188.05V158h6.72v30Z"/><path class="cls-3" d="M505,188.26V182.8l24.15,0A4.16,4.16,0,0,0,532,182a4.43,4.43,0,0,0,0-5.58,4.16,4.16,0,0,0-2.84-.86h-15c-3.11,0-5.52-.75-7.25-2.25s-2.58-3.7-2.58-6.62.86-5.11,2.58-6.61,4.14-2.25,7.25-2.25h23.6v5.46l-22.89,0a4.32,4.32,0,0,0-2.81.82,3.92,3.92,0,0,0,0,5.25,4.37,4.37,0,0,0,2.81.82h15q4.67,0,7.24,2.29t2.59,6.78q0,4.45-2.59,6.76t-7.24,2.31Z"/><path class="cls-3" d="M543.94,188.05V158h4.95l13.44,0q8.14,0,12.64,3.82t4.5,11.22q0,7.38-4.5,11.21t-12.64,3.82Zm17.93-24.61H550.66v19.15h11.21q5.29,0,8-2.31t2.73-7.26q0-5-2.73-7.29T561.87,163.44Z"/><path class="cls-3" d="M583.67,188.05V158h6.8l21.25,21.59V158h6.72v30h-6.8l-21.25-21.63v21.63Z"/><path class="cls-3" d="M639,188.05V158.11l25.29-.09q5,0,7.41,2.08t2.41,6.24q0,4.16-2.77,6.09a6.55,6.55,0,0,1,2.73,2.66,9.05,9.05,0,0,1,.88,4.27c0,2.83-.8,5-2.41,6.44s-4.08,2.21-7.41,2.21Zm24.49-24.65H645.74v6.72h17.77q3.82,0,3.82-3.45Q667.33,163.4,663.51,163.4Zm.84,12.09H645.74v7.14h18.61q3.82,0,3.82-3.61T664.35,175.49Z"/><path class="cls-3" d="M679.59,188.05V158h6.72v12.31h21.17V158h6.72v30h-6.72V175.79H686.31v12.26Z"/><path class="cls-3" d="M720.08,188.05V158h5l13.44,0q8.14,0,12.64,3.82T755.61,173q0,7.38-4.49,11.21t-12.64,3.82ZM738,163.44H726.8v19.15H738c3.52,0,6.2-.77,8-2.31s2.73-4,2.73-7.26-.91-5.77-2.73-7.29S741.54,163.44,738,163.44Z"/></g></g></svg>