<svg xmlns="http://www.w3.org/2000/svg" viewBox="0 0 765.61 198.27"><defs><style>.cls-1{fill:none;}.cls-2{fill:#fff;}.cls-3{fill:#030c69;}</style></defs><g id="Layer_2" data-name="Layer 2"><g id="Layer_1-2" data-name="Layer 1"><polygon class="cls-1" points="34.08 178.07 38.3 183.2 38.3 172.95 34.08 178.07"/><path class="cls-1" d="M566.87,173.44h-6.21v9.16h6.21c2.23,0,3.94-.4,4.79-1.13s1-2.25,1-3.45c0-1-.12-2.77-.94-3.46S569.11,173.44,566.87,173.44Z"/><path class="cls-1" d="M743,173.44H736.8v9.16H743c2.23,0,3.93-.4,4.79-1.13s1-2.25,1-3.45c0-1-.12-2.77-.95-3.46S745.26,173.44,743,173.44Z"/><polygon class="cls-2" points="305.59 75.96 305.96 77.8 306.16 78.84 307.08 81.77 307.56 82.9 308.27 84.55 308.63 85.2 309.55 86.81 309.77 87.2 311.53 89.71 313.46 91.9 352.09 131.38 354.78 134.14 355.83 135.21 356.21 135.58 356.81 136.16 357.44 136.72 358.33 137.55 359.01 138.06 360.77 139.36 361.51 139.81 363.39 140.91 366.15 142.19 367.01 142.48 369.06 143.16 369.91 143.36 372.01 143.83 373 143.95 375.05 144.19 378.01 144.21 378.47 144.18 381.16 143.94 381.79 143.8 384.12 143.33 384.76 143.12 387.02 142.43 389.85 141.19 390.44 140.85 392.49 139.7 393.09 139.26 394.96 137.96 395.46 137.5 395.51 137.48 396.23 136.81 396.68 136.41 397.08 136.09 397.75 135.41 398.76 134.43 400.06 133.16 401.5 131.74 440.79 93.27 442.76 91.14 444.56 88.71 444.92 88.12 445.85 86.54 446.13 86.08 446.95 84.26 447.39 83.31 448.38 80.39 449.03 77.45 449.13 76.62 449.39 74.39 449.39 74.1 449.43 71.67 449.43 71.32 449.2 69.08 449.14 68.37 448.75 66.46 448.56 65.37 447.63 62.46 447.15 61.33 446.41 59.6 446.05 59 444.93 57 443.16 54.52 441.23 52.33 401.16 11.34 398.93 9.07 398.53 8.65 397.88 8.06 397.02 7.25 396.6 6.87 396.38 6.65 395.71 6.17 393.96 4.88 393.34 4.49 391.32 3.3 388.5 2 387.69 1.74 385.67 1.05 382.64 0.37 381.71 0.28 379.66 0.04 376.56 0 375.99 0.07 373.67 0.29 373.08 0.38 370.55 0.89 369.91 1.1 367.76 1.79 367.15 2.03 364.91 3 362.21 4.51 361.62 4.95 359.84 6.22 359.23 6.72 358.76 7.14 357.94 7.87 357.51 8.27 355.91 9.81 354.68 11.03 313.9 50.95 311.93 53.1 310.12 55.55 309.81 56.08 308.82 57.74 308.58 58.16 307.29 60.94 306.83 62.38 306.33 63.82 306.1 64.92 305.66 66.82 305.58 67.59 305.36 69.56 305.31 70.14 305.29 72.87 305.5 75.19 305.59 75.96"/><path class="cls-2" d="M304.84,158.11,295,170.33h-2.61V158.11H275.64v19.13L267,158H250.15L239,182.81H223.1c-2.27,0-4-.4-4.8-1.09-.6-.53-1-1.88-1-3.7s.34-3.15.94-3.67c.37-.32,1.58-1.07,4.81-1.07h19.66V157.93l-20.29-.11c-6.68,0-12,1.7-15.85,5.06-.11.09-.2.21-.31.31V158H189.59v14.38L175.43,158h-26.5V182.3c0,.16,0,.3,0,.41a10.76,10.76,0,0,1-1.54.1h-8.11a10.76,10.76,0,0,1-1.54-.1c0-.11,0-.25,0-.41V158h-24.8l-12.43,8.71L88.06,158H38.3v.08H29.2l-9.87,12.22H16.72V158.11H0v39.95H16.72V185.79h2.57l9.91,12.27h95.92v-4a13,13,0,0,0,3.73,2.52,22.37,22.37,0,0,0,9.29,1.65h10.37a22.37,22.37,0,0,0,9.29-1.65,12.83,12.83,0,0,0,3.73-2.52v4h16.72V183.65l14.16,14.41h13.9v-5.19l.32.32c3.86,3.37,9.25,5.08,16,5.08h20.54v-.21h7.22l2.86-6.35h10.63l2.85,6.35h25.62V185.79h2.57l9.91,12.27h21.34l-16.46-20,16.48-20Zm-270.76,20L38.3,173V183.2Z"/><polygon class="cls-2" points="478.71 177.24 470.06 158.03 453.22 158.03 444.57 177.24 444.57 158.03 427.85 158.03 427.85 172.41 413.69 158.03 399.8 158.03 399.8 177.24 391.14 158.03 374.3 158.03 363.24 182.6 345.37 182.6 345.37 158.03 328.65 158.03 328.65 198.06 356.28 198.06 367.33 198.06 374.55 198.06 377.41 191.71 388.04 191.71 390.89 198.06 399.8 198.06 409.17 198.06 416.51 198.06 416.51 183.65 430.67 198.06 435.19 198.06 444.57 198.06 453.47 198.06 456.33 191.71 466.96 191.71 469.81 198.06 478.71 198.06 488.09 198.06 495.43 198.06 495.43 158.03 478.71 158.03 478.71 177.24"/><path class="cls-2" d="M611.73,172.41,597.57,158h-13.9v5.4c-.16-.14-.29-.3-.46-.43-3.91-3.33-9.25-5-15.89-5l-13.43.05h-6.13v-.21h-28.6c-4.33,0-7.87,1.16-10.53,3.47-2,1.71-4.3,4.9-4.3,10.39s2.34,8.68,4.3,10.39a11.22,11.22,0,0,0,.94.73H505v15.47h29.87a16.15,16.15,0,0,0,9-2.42v2.21h23.39c6.63,0,12-1.69,15.88-5l.46-.43v5.45h16.72V183.65l14.15,14.41h13.9V158H611.73Zm-40.07,9.06c-.85.73-2.56,1.13-4.79,1.13h-6.21v-9.16h6.21c2.24,0,4,.4,4.81,1.12s.94,2.46.94,3.46C572.62,179.22,572.46,180.8,571.66,181.47Z"/><path class="cls-2" d="M759.36,163c-3.91-3.33-9.26-5-15.9-5L730,158H707.48v12.3H696.31V158H679.6v3c-2.52-2-6-3-10.31-3l-30.27.1v39.93l31.13-.05a16.62,16.62,0,0,0,9.45-2.48v2.53h16.71V185.79h11.17v12.27h36c6.62,0,12-1.69,15.88-5,4.15-3.53,6.25-8.58,6.25-15S763.51,166.53,759.36,163Zm-11.55,18.47c-.86.73-2.56,1.13-4.79,1.13H736.8v-9.16H743c2.24,0,3.94.4,4.8,1.12s.95,2.46.95,3.46C748.77,179.22,748.6,180.8,747.81,181.47Z"/><path class="cls-2" d="M438.78,71.67v2.21l0,.22-.26,2-.14.55-.41,1.58-.33.87-.47,1.18-.66,1.22-.39.71L435,83.74l-.15.22-1.48,1.64-.33.31-2.06,2L429,89.78l-39.2,38.39-1.65,1.44-1.82,1.23-2,1-1.43.52-.64.23-2.13.5-2,.22-.21,0-2.21,0-2.17-.29-2.13-.54-1.25-.5-.8-.32-1.93-1-1.8-1.26-1.64-1.48L325.57,88.5l-1.86-1.9-2-2.06-.15-.16-1.44-1.65-.26-.38-1-1.44-.45-.87L317.88,79l-.47-1.32-.28-.75-.42-1.72-.08-.43-.25-2.08v-.09l0-2.21,0-.22.26-2,.13-.54.4-1.58.35-.89.47-1.16.64-1.23.4-.72,1.11-1.58.16-.2,1.47-1.64.32-.33,2.06-2,1.9-1.86,39.2-38.38L367,14.6l1.82-1.23,2-1,1.41-.52.64-.24,2.15-.5,2.19-.25,2.19,0,2.18.29,2.14.56,1.23.49.8.31,1.95,1,1.78,1.27,1.64,1.47L429.6,55.73l1.86,1.9,2,2,.16.15,1.44,1.67.26.38,1,1.44.44.87.55,1.09.49,1.31.28.76.4,1.72.1.42.23,2.08Z"/><path class="cls-1" d="M438.21,69.07l-.4-1.72-.28-.76-.48-1.31-.56-1.09-.43-.87-1-1.44-.27-.38-1.44-1.67-.15-.15-2-2-1.86-1.9L390.83,16.32l-1.63-1.47-1.79-1.27-1.94-1-.8-.31-1.24-.49-2.13-.56-2.19-.29-2.19,0-2.18.25-2.16.5-.64.24-1.41.52-2,1-1.82,1.23-1.67,1.45-39.2,38.38L324,56.29l-2.07,2-.31.33-1.48,1.64-.15.2-1.11,1.58-.4.72L317.82,64l-.46,1.16-.35.89-.4,1.58-.14.54-.26,2,0,.22,0,2.21v.09l.24,2.08.09.43.41,1.72.28.75.47,1.32.56,1.09.45.87,1,1.44.26.38,1.44,1.65.16.16,2,2.06,1.86,1.9,38.53,39.39,1.63,1.48,1.81,1.26,1.92,1,.8.32,1.25.5,2.14.54,2.17.29,2.2,0,.21,0,2-.22,2.13-.5.65-.23,1.42-.52,2-1,1.83-1.23,1.65-1.44,39.2-38.39,1.89-1.84,2.07-2,.33-.31L434.58,84l.16-.22,1.11-1.58.38-.71.66-1.22.47-1.18.33-.87.42-1.58.14-.55.26-2,0-.22,0-2.21,0-.1-.23-2.08Zm-33-29.64,1,1.06,1.08,1.1L409.67,44l2.57,2.64L415,49.45l1.69,1.72,1.49,1.53,1.3,1.33,1.11,1.13.58.61h0l-4.15.35h0l-4.18.11-4.1-.11h-.11l-4.11-.35h0l-4.15-.61L396.16,54l-4.1-1.33-4-1.53-3.94-1.72,5.1-2.85L394.42,44l5.37-2.37,2.78-1.1ZM369,20.42l.19-.17,1.16-1,.19-.16,1.29-.81.21-.13,1.39-.62.2-.09,1.5-.41.21-.07,1.59-.21.16,0,1.75,0,1.38.21.36.07,1.39.41.29.09,1.34.62.26.13,1.23.81.25.16,1.11,1,.21.17,10.45,10.7,3.18,3.24-.21.07-4.67,1.79-3.11,1.34-1.67.71-4.55,2.22-.14.07L381.37,43l-.3.19-1.79,1.06-2.37,1.44-2.35-1.44-1.73-1.06-.25-.19L369,40.56l-.11-.07-2.84-2.22-.92-.71-1.57-1.34-2.05-1.79-.08-.07-3.37-3.24Zm-21.48,21,3.06-3,2.31-2.24.94-.92.93.92L357,38.46l3.41,3,2.9,2.3.66.52,3.17,2.25.52.37,3.56,2.25.26.16-3,2.28-1.25.93-1.62,1.32-2.38,1.95-.15.14-.25-.14-3.57-1.95-2.17-1.32-1.53-.93-3.35-2.28-.25-.16-3-2.25-.49-.37-2.71-2.25-.62-.52ZM332.88,55.79l2.5-2.45,2.69-2.62,1.6-1.57,1.25-1.23,1.42,1.23,1.82,1.57,3.39,2.62,3.5,2.45,1.36.85,2.27,1.42,2.17,1.22,1.57.88-1.58,1.58L354.6,64l0,0-1.91,2.08L351,67.92l0,0-.14,0L347,66.1,343.05,64,343,64l-3.75-2.24-2.36-1.58-1.32-.88-1.63-1.22L332,56.64Zm-10.07,17-.8-.5,0-1.48v-.23l.26-1.66.09-.3.4-1.32.5-1.09.21-.45.92-1.43.61-.71.49-.57,1.3-1.27,1-1,1.23,1L330.65,63l.72.57,1,.71,2,1.43.64.45,1.75,1.09,2.1,1.32.56.3,3,1.66.4.23L346,72.25l1,.5-1.29,1.72-1.53,2.06-.43.59-.87,1.29-1.16,1.7-1,1.46-.06.07-.19-.07-3.71-1.46L333,78.41l-2.59-1.29-1.16-.59-3.66-2.06ZM335.9,89.9l-.35.65-.62-.65-3-3.05-1.3-1.32-1.44-1.48-1-1-.58-.59,1.2.59,2.05,1,3.32,1.48,3.38,1.32Zm96.79-17.15,0,.83-.12.82-.14.94-.15.46L431.91,77l0,.07-.38.82-.3.6-.07.18-.43.66-.38.57,0,0-.12.2L429,81.4l-.52.52-1.88,1.82L425,85.35l-1.4,1.39-1.15,1.11-.85.84-.92.9-2.22,2.17-2.05,2-1.84,1.8-1.62,1.58-1.35,1.36-1.11,1.07-1.62,1.58-1.35,1.32-1.09,1.08-.84.81-.57.56-.35.35-.14.14-18.78,18.38-.19.19-1.15,1-.19.15-1.28.82-.21.12-1.41.62-.21.09-1.49.44-.19,0-1.62.21h-1.91l-1.37-.21-.36,0-1.37-.44-.32-.09-1.32-.62-.27-.12-1.22-.82-.24-.15-1.11-1-.21-.19-18-18.38-.05-.07,4.17.07,4.18-.14,4.17-.35,4.13-.56,3.84-.81,3.78-1.08,3.68-1.32,3.6-1.58,2.31-1.07L386,97.14l2-1.58,1.78-1.8,1.58-2,1.34-2.17-.54.31-1.63,1-1.18.68-.12.07-.7.37-.26.13-2.62,1.34-.75.35L382,95.11l-3.77,1.44-3.82,1.22-3.89,1-1.59.21-2.83.38-1.72.14-2.74.24-2.16.07-2.31.07-4.46-.07-1.06-.07-3.4-.24-1.2-.14L343.83,99l-.21-.21-1-1-1.2-1.22L340,95.11l-1.28-1.3.22-.35.85-1.34.11-.15.28-.45.27-.44.21-.31.7-1,.69-1,.18-.26,1,.26,3.82,1,4.89,1,2.14.31,2.81.44,5,.45,5,.15,5-.13,3.25-.37.64-.07,3.87-.68,3.81-1,.95-.31,2.78-.9,2.4-.84,2.29-1.11L394,85.35l2-1.61,1.78-1.82.38-.52,1-1.32.16-.2-.59.27-.07,0-3,1.39L391.91,83l-.92.31-2.9,1-1.27.35-2.6.71-1.45.32-2.5.53-1.25.2-2.72.43H376l-.69,0-4.13.12-4.38-.12-.74,0H366l-5-.43-1.35-.2-3.72-.53-1.51-.32-3.51-.71-1.3-.35-3.64-1,.24-.31,1.16-1.46,1.1-1.39.24-.3.4-.52.19-.22.45-.52.82-1,1-1.19,1.09-1.26.11-.12.36.12,3.79,1.26,4.2,1.19,4.27,1,3,.52,1.31.22,4.34.52,4.35.3,3.93,0,3.4-.27.5,0,3.89-.57,3.06-.66.78-.18,2.47-.6,2.22-.82.15-.07L401,75.8l.71-.46,1.41-.94.93-.82,1-.83.85-.92.87-.94-2.69.92-1.11.38-2.81.79-1.06.29-2.94.66-1,.23-3.09.52-.88.14-3.35.38-.65.07-1.23.07-2.78.15-2.34-.15-1-.07-1.08-.07-3.18-.38-1.25-.14-3.07-.52L370,73.93l-3-.66L365.64,73l-2.9-.79-1.39-.38-2.83-.92-1.41-.47.37-.34.55-.54.09-.09.37-.36.76-.73,1-1,.68-.64.59-.54,1.54-1.38,1.79-1.6,0,0v0l4.07,1.6,4.16,1.38,1.9.54,2.34.64,4.29,1,4.32.73,3.91.36,3.92.09,3.93-.18,3.88-.45,2.52-.36.66-.16,1.81-.47L409,67l.4-.21,1.84-1,.74-.52,1.36-.93.47-.42,1.44-1.25-2.3.54-1.63.36-3.24.58-.72.13-4,.49-2,.12-2.05.14-4,0-1,0-3.06-.14-.74-.12-2.88-.49-.75-.13-2.6-.58-1.74-.36-2-.54L378.26,62,374,60.67,373,60.25l-.16-.07-.4-.14-1.25-.49-1.25-.48.37-.26,1.52-1.15,1.81-1.35.49-.37,1.75-1.19,2.05-1.41.5-.35.8.35,3.14,1.41,3.09,1.19.94.37,4.1,1.35,4.17,1.15,1.37.26,2.46.48,3.91.49,2.83.14,1.07.07,3.93-.07,2.53-.09,2.52-.4,2.45-.67,2.34-1,.73-.4,1.5-.81.79.81.4.4.94,1,.66.67.38.4.09.09.07.07.4.42L427.34,62l.63.64,1.23,1.25.35.42.78.93.33.52.61,1,.1.21.4.93.21.47,0,.16.1.36.13.45.05.18.15.54,0,.34.07.47.12.94Z"/><path class="cls-3" d="M444.22,69.49l0-.42-.34-1.72-.14-.76-.42-1.31-.35-1.09-.36-.87-.63-1.44-.22-.38-.94-1.67-.09-.15-1.46-2-1.66-1.9L399,16.32l-1.44-1.47-1.25-1.27-1-1-.3-.31-.54-.49-.59-.56-.31-.29,0,0-.39-.36-.43-.31L391.14,9l-.47-.29-1.68-1-.52-.24-1.77-.82-.56-.17-1.84-.63-.61-.14-1.85-.41-.7-.07L379.34,5l-2.52,0-.3,0-2.2.21-.42.07-2.06.41-.42.14-2,.63-.43.17-1.88.82-.43.24-1.77,1-.4.29-1.65,1.19-.38.31-.4.36-.28.25-.57.5-.26.24-.54.52-1,1-1.25,1.23-1.47,1.45L317.49,54.43l-1.7,1.86-1.49,2-.19.33-1,1.64-.12.2-.73,1.58-.33.72-.4,1.23-.4,1.16-.19.89-.37,1.58-.05.54-.23,2v.22l0,2.21v.09l.19,2.08,0,.43.35,1.72.14.75.42,1.32.34,1.09.37.87.62,1.44.21.38.94,1.65.08.16,1.46,2.06,1.67,1.9,38.54,39.39,1.44,1.48,1.24,1.26,1,1,.31.32.52.5.61.54.31.29,0,0,.4.37.44.33,1.58,1.16.48.29,1.69,1,.52.25,1.77.81.55.19,1.84.61.59.14,1.86.42.71.08,1.79.21,2.52,0,.29,0,2.23-.21.4-.08,2.06-.42.44-.14,2-.61.44-.19,1.87-.81.42-.25,1.77-1,.4-.29,1.67-1.16.36-.33.4-.37,0,0,.24-.22.57-.5.28-.23.52-.52,1-1,1.27-1.23,1.46-1.44,39.2-38.39,1.7-1.84,1.52-2,.19-.31.95-1.64.14-.22.71-1.58.33-.71.42-1.22.4-1.18.19-.87.35-1.58.07-.55.22-2v-.22l0-2.21v-.1Zm-5.66,2.18,0,2.21,0,.22-.26,2-.14.55-.42,1.58-.33.87-.47,1.18-.66,1.22-.38.71-1.11,1.58-.16.22-1.47,1.64-.33.31-2.07,2-1.89,1.84-39.2,38.39L388,129.61l-1.83,1.23-2,1-1.42.52-.65.23-2.13.5-2,.22-.21,0-2.2,0-2.17-.29-2.14-.54L370,132l-.8-.32-1.92-1-1.81-1.26-1.63-1.48L325.34,88.5l-1.86-1.9-2-2.06-.16-.16-1.44-1.65-.26-.38-1-1.44-.45-.87L317.65,79l-.47-1.32-.28-.75-.41-1.72-.09-.43-.24-2.08v-.09l0-2.21,0-.22.26-2,.14-.54.4-1.58.35-.89.46-1.16.65-1.23.4-.72L320,60.47l.15-.2,1.48-1.64.31-.33,2.07-2,1.89-1.86,39.2-38.38,1.67-1.45,1.82-1.23,2-1,1.41-.52.64-.24,2.16-.5,2.18-.25,2.19,0,2.19.29,2.13.56,1.24.49.8.31,1.94,1,1.79,1.27,1.63,1.47,38.54,39.41,1.86,1.9,2,2,.15.15,1.44,1.67.27.38,1,1.44.43.87.56,1.09.48,1.31.28.76.4,1.72.1.42.23,2.08Z"/><polygon class="cls-3" points="361.52 34.43 363.57 36.22 365.13 37.56 366.06 38.27 368.9 40.49 369.01 40.56 372.58 43.03 372.83 43.22 374.56 44.28 376.91 45.72 379.29 44.28 381.07 43.22 381.37 43.03 385.93 40.56 386.07 40.49 390.62 38.27 392.29 37.56 395.4 36.22 400.07 34.43 400.27 34.36 397.1 31.12 386.65 20.42 386.44 20.25 385.33 19.26 385.08 19.1 383.85 18.29 383.59 18.16 382.25 17.54 381.96 17.45 380.57 17.04 380.2 16.97 378.83 16.76 377.08 16.74 376.92 16.76 375.33 16.97 375.12 17.04 373.63 17.45 373.42 17.54 372.03 18.16 371.82 18.29 370.54 19.1 370.34 19.26 369.18 20.25 368.99 20.42 358.07 31.12 361.44 34.36 361.52 34.43"/><polygon class="cls-3" points="394.42 43.96 389.18 46.6 384.08 49.45 388.02 51.17 392.06 52.7 396.16 54.03 400.33 55.16 404.48 55.77 404.53 55.77 408.64 56.12 408.75 56.13 412.85 56.24 417.03 56.13 417.06 56.12 421.21 55.77 421.2 55.77 420.62 55.16 419.51 54.03 418.21 52.7 416.72 51.17 415.03 49.45 412.24 46.6 409.67 43.96 407.34 41.59 406.26 40.49 405.24 39.43 402.57 40.49 399.79 41.59 394.42 43.96"/><polygon class="cls-3" points="348.5 46.53 348.99 46.9 351.98 49.16 352.22 49.31 355.57 51.59 357.1 52.52 359.27 53.84 362.84 55.79 363.09 55.93 363.24 55.79 365.62 53.84 367.24 52.52 368.49 51.59 371.52 49.31 371.26 49.16 367.7 46.9 367.18 46.53 364.01 44.28 363.35 43.76 360.45 41.46 357.05 38.46 354.75 36.22 353.81 35.3 352.88 36.22 350.57 38.46 347.51 41.46 345.17 43.76 345.79 44.28 348.5 46.53"/><polygon class="cls-3" points="335.57 59.28 336.89 60.16 339.25 61.74 343 63.98 343.05 64.02 346.96 66.1 350.83 67.92 350.97 67.97 351.02 67.92 352.67 66.1 354.58 64.02 354.6 63.98 356.84 61.74 358.42 60.16 356.85 59.28 354.68 58.06 352.41 56.64 351.06 55.79 347.55 53.34 344.16 50.72 342.34 49.16 340.92 47.92 339.67 49.16 338.07 50.72 335.38 53.34 332.88 55.79 332.03 56.64 333.94 58.06 335.57 59.28"/><polygon class="cls-3" points="432.5 70.42 432.46 70.08 432.31 69.54 432.25 69.36 432.13 68.91 432.03 68.55 431.98 68.39 431.77 67.92 431.37 66.98 431.27 66.78 430.66 65.81 430.33 65.28 429.55 64.35 429.2 63.93 427.97 62.68 427.34 62.04 425.99 60.67 425.59 60.25 425.52 60.18 425.43 60.09 425.05 59.69 424.39 59.02 423.45 58.06 423.05 57.66 422.25 56.85 420.76 57.66 420.03 58.06 417.69 59.02 415.24 59.69 412.72 60.09 410.19 60.18 406.26 60.25 405.19 60.18 402.36 60.04 398.45 59.55 395.99 59.07 394.62 58.81 390.45 57.66 386.35 56.31 385.41 55.94 382.32 54.74 379.18 53.34 378.38 52.99 377.88 53.34 375.83 54.74 374.08 55.94 373.59 56.31 371.79 57.66 370.26 58.81 369.89 59.07 371.14 59.55 372.39 60.04 372.79 60.18 372.95 60.25 374.04 60.67 378.26 62.04 380.59 62.68 382.55 63.22 384.29 63.58 386.89 64.16 387.64 64.29 390.52 64.78 391.26 64.9 394.32 65.04 395.29 65.08 399.32 65.04 401.37 64.9 403.33 64.78 407.32 64.29 408.04 64.16 411.28 63.58 412.91 63.22 415.21 62.68 413.76 63.93 413.3 64.35 411.94 65.28 411.2 65.81 409.36 66.78 408.96 66.98 406.58 67.92 404.77 68.39 404.11 68.55 401.6 68.91 397.71 69.36 393.78 69.54 389.86 69.45 385.95 69.09 381.63 68.36 377.34 67.39 375 66.74 373.1 66.2 368.94 64.81 364.88 63.22 364.86 63.2 364.84 63.22 363.05 64.81 361.51 66.2 360.92 66.74 360.24 67.39 359.25 68.36 358.49 69.09 358.12 69.45 358.03 69.54 357.48 70.08 357.11 70.42 358.52 70.89 361.35 71.81 362.74 72.19 365.64 72.97 366.99 73.27 369.98 73.93 371.3 74.16 374.37 74.68 375.62 74.81 378.8 75.2 379.88 75.27 380.9 75.34 383.24 75.49 386.02 75.34 387.25 75.27 387.9 75.2 391.25 74.81 392.13 74.68 395.22 74.16 396.21 73.93 399.15 73.27 400.21 72.97 403.02 72.19 404.13 71.81 406.82 70.89 405.95 71.83 405.1 72.75 404.1 73.58 403.16 74.4 401.75 75.34 401.04 75.81 398.76 76.95 398.61 77.02 396.39 77.84 393.92 78.44 393.14 78.62 390.08 79.28 386.19 79.85 385.69 79.89 382.29 80.14 378.37 80.18 374.01 79.89 369.67 79.36 368.36 79.14 365.36 78.62 361.09 77.64 356.89 76.47 353.1 75.2 352.74 75.08 352.63 75.2 351.54 76.47 350.52 77.64 349.7 78.62 349.25 79.14 349.06 79.36 348.66 79.89 348.42 80.18 347.32 81.57 346.16 83.03 345.92 83.34 349.56 84.3 350.86 84.64 354.37 85.35 355.88 85.67 359.6 86.2 360.95 86.4 365.97 86.83 366.06 86.83 366.8 86.85 371.18 86.97 375.31 86.85 376 86.83 376.3 86.83 379.02 86.4 380.27 86.2 382.77 85.67 384.22 85.35 386.82 84.64 388.09 84.3 390.99 83.34 391.91 83.03 395.66 81.57 398.66 80.18 398.73 80.14 399.32 79.89 399.16 80.08 398.16 81.39 397.77 81.92 396 83.74 394.04 85.35 391.91 86.74 389.62 87.85 387.22 88.69 384.44 89.59 383.49 89.9 379.68 90.88 375.81 91.55 375.17 91.62 371.92 91.99 366.91 92.13 361.91 91.97 356.92 91.52 354.11 91.08 351.98 90.77 347.08 89.73 343.26 88.69 342.24 88.43 342.06 88.69 341.37 89.73 340.67 90.77 340.46 91.08 340.19 91.52 339.91 91.97 339.8 92.13 338.95 93.46 338.73 93.81 340.01 95.11 341.42 96.55 342.62 97.77 343.62 98.79 343.83 99 347.06 99.38 348.26 99.52 351.66 99.76 352.72 99.83 357.18 99.9 359.49 99.83 361.64 99.76 364.39 99.52 366.11 99.38 368.94 99 370.54 98.79 374.42 97.77 378.24 96.55 382.01 95.11 384.94 93.81 385.69 93.46 388.31 92.13 388.57 91.99 389.27 91.62 389.39 91.55 390.57 90.88 392.2 89.9 392.74 89.59 391.4 91.76 389.82 93.76 388.04 95.56 386.04 97.14 383.89 98.5 381.58 99.57 377.98 101.15 374.3 102.47 370.52 103.55 366.68 104.36 362.55 104.92 358.38 105.27 354.2 105.41 350.03 105.34 350.08 105.41 368.07 123.79 368.28 123.98 369.39 124.96 369.63 125.11 370.85 125.93 371.13 126.05 372.44 126.67 372.76 126.76 374.13 127.2 374.49 127.25 375.87 127.46 377.64 127.47 377.77 127.46 379.39 127.25 379.58 127.2 381.07 126.76 381.28 126.67 382.69 126.05 382.9 125.93 384.18 125.11 384.37 124.96 385.52 123.98 385.71 123.79 404.49 105.41 404.63 105.27 404.98 104.92 405.55 104.36 406.39 103.55 407.48 102.47 408.83 101.15 410.45 99.57 411.56 98.5 412.91 97.14 414.53 95.56 416.37 93.76 418.42 91.76 420.64 89.59 421.56 88.69 422.41 87.85 423.56 86.74 424.96 85.35 426.61 83.74 428.49 81.92 429.01 81.39 430.17 80.08 430.29 79.89 430.33 79.85 430.71 79.28 431.14 78.62 431.21 78.44 431.51 77.84 431.89 77.02 431.91 76.95 432.25 75.81 432.41 75.34 432.55 74.4 432.67 73.58 432.69 72.75 432.69 71.83 432.57 70.89 432.5 70.42"/><polygon class="cls-3" points="330.39 77.12 332.98 78.41 336.82 80.11 340.53 81.57 340.73 81.64 340.78 81.57 341.75 80.11 342.91 78.41 343.78 77.12 344.21 76.53 345.74 74.47 347.03 72.75 346 72.25 342.95 70.77 342.55 70.54 339.51 68.88 338.95 68.58 336.85 67.26 335.1 66.17 334.46 65.72 332.41 64.29 331.37 63.58 330.65 63.01 329.02 61.74 327.79 60.77 326.82 61.74 325.52 63.01 325.03 63.58 324.42 64.29 323.5 65.72 323.29 66.17 322.79 67.26 322.39 68.58 322.3 68.88 322.04 70.54 322.04 70.77 322.01 72.25 322.81 72.75 325.57 74.47 329.23 76.53 330.39 77.12"/><polygon class="cls-3" points="330.88 84.05 328.83 83.03 327.63 82.44 328.21 83.03 329.2 84.05 330.64 85.53 331.94 86.85 334.93 89.9 335.55 90.55 335.9 89.9 337.58 86.85 334.2 85.53 330.88 84.05"/><path class="cls-3" d="M5,193.06V163.11h6.72v12.22h10l9.87-12.22h8.35L27.6,178.06l12.34,15H31.59l-9.92-12.27h-10v12.27Z"/><path class="cls-3" d="M43.3,193.06V163H76.23v5.46H50v6.63H73.8v5.46H50v7H76.23v5.46Z"/><path class="cls-3" d="M80.85,193.06V163h5.63l13.9,9.74h.21l13.9-9.74h5.63v30H113.4V171.43l-9.53,6.38v15.25H97.15V177.81l-9.58-6.38v21.63Z"/><path class="cls-3" d="M138.14,193.27a17.79,17.79,0,0,1-7.22-1.2,7.35,7.35,0,0,1-3.79-3.63A14.67,14.67,0,0,1,126,182.3V163h6.72V182.3c0,2.13.5,3.58,1.49,4.35s2.68,1.16,5.06,1.16h8.11q3.57,0,5.06-1.16c1-.77,1.49-2.22,1.49-4.35V163h6.72V182.3a14.67,14.67,0,0,1-1.13,6.14,7.37,7.37,0,0,1-3.78,3.63,17.88,17.88,0,0,1-7.23,1.2Z"/><path class="cls-3" d="M166.53,193.06V163h6.81l21.25,21.58V163h6.72v30H194.5l-21.25-21.63v21.63Z"/><path class="cls-3" d="M222.64,193.27q-8.31,0-12.72-3.85T205.51,178q0-7.52,4.41-11.38t12.72-3.82l15.12.08v5.38H223.1q-5.46,0-8.1,2.31c-1.77,1.54-2.65,4-2.65,7.43s.88,5.9,2.65,7.45,4.46,2.34,8.1,2.34h15.08v5.46Z"/><path class="cls-3" d="M239.86,193.06l13.53-30h10.37l13.52,30H270l-2.86-6.35H250l-2.86,6.35Zm12.6-11.81h12.22l-5.83-13h-.55Z"/><path class="cls-3" d="M280.64,193.06V163.11h6.72v12.22h10l9.87-12.22h8.36l-12.35,14.95,12.35,15h-8.36l-9.91-12.27h-10v12.27Z"/><path class="cls-3" d="M333.65,193.06V163h6.72V187.6h22v5.46Z"/><path class="cls-3" d="M364,193.06l13.53-30h10.37l13.52,30h-7.3l-2.86-6.35H374.18l-2.86,6.35Zm12.6-11.81h12.23l-5.84-13h-.55Z"/><path class="cls-3" d="M404.8,193.06V163h6.8l21.25,21.58V163h6.72v30h-6.8l-21.26-21.63v21.63Z"/><path class="cls-3" d="M442.93,193.06l13.52-30h10.38l13.52,30H473l-2.85-6.35h-17.1l-2.85,6.35Zm12.6-11.81h12.22l-5.84-13h-.54Z"/><path class="cls-3" d="M483.71,193.06V163h6.72v30Z"/><path class="cls-3" d="M510,193.27v-5.46l24.15,0A4.21,4.21,0,0,0,537,187a4.44,4.44,0,0,0,0-5.59,4.21,4.21,0,0,0-2.84-.86h-15c-3.11,0-5.52-.75-7.25-2.25s-2.58-3.7-2.58-6.61.86-5.12,2.58-6.62,4.14-2.24,7.25-2.24h23.6v5.46l-22.89-.05a4.37,4.37,0,0,0-2.81.82,3.92,3.92,0,0,0,0,5.25,4.32,4.32,0,0,0,2.81.82h15q4.67,0,7.24,2.29t2.59,6.78q0,4.45-2.59,6.77t-7.24,2.31Z"/><path class="cls-3" d="M548.94,193.06V163h4.95l13.44-.05q8.14,0,12.64,3.83t4.5,11.21q0,7.39-4.5,11.21t-12.64,3.83Zm17.93-24.62H555.66V187.6h11.21q5.29,0,8-2.31c1.82-1.54,2.73-4,2.73-7.27s-.91-5.76-2.73-7.29S570.4,168.44,566.87,168.44Z"/><path class="cls-3" d="M588.67,193.06V163h6.8l21.25,21.58V163h6.72v30h-6.8l-21.25-21.63v21.63Z"/><path class="cls-3" d="M644,193.06V163.11l25.29-.08q5,0,7.41,2.07t2.41,6.24q0,4.16-2.77,6.09a6.46,6.46,0,0,1,2.73,2.67,9,9,0,0,1,.88,4.26q0,4.24-2.41,6.45t-7.41,2.2Zm24.49-24.66H650.74v6.72h17.77q3.82,0,3.82-3.44Q672.33,168.4,668.51,168.4Zm.84,12.1H650.74v7.14h18.61c2.55,0,3.82-1.21,3.82-3.61S671.9,180.5,669.35,180.5Z"/><path class="cls-3" d="M684.59,193.06V163h6.72v12.3h21.17V163h6.72v30h-6.72V180.79H691.31v12.27Z"/><path class="cls-3" d="M725.08,193.06V163h5l13.44-.05q8.14,0,12.64,3.83T760.61,178q0,7.39-4.49,11.21t-12.64,3.83ZM743,168.44H731.8V187.6H743c3.52,0,6.2-.77,8-2.31s2.73-4,2.73-7.27-.91-5.76-2.73-7.29S746.54,168.44,743,168.44Z"/></g></g></svg>