<svg xmlns="http://www.w3.org/2000/svg" viewBox="0 0 718.48 215.66"><defs><style>.cls-1{fill:#fff;}.cls-2{fill:none;}.cls-3{fill:#030c69;}</style></defs><g id="Layer_2" data-name="Layer 2"><g id="Layer_1-2" data-name="Layer 1"><path class="cls-1" d="M206.48,107.13l0,3.55-.06.36-.42,3.12-.22.9-.67,2.54-.53,1.39-.75,1.9-1.06,2-.62,1.15-1.78,2.53-.25.37-2.38,2.62-.53.5-3.32,3.27-3,2.95-63,61.69-2.66,2.31-2.92,2-3.16,1.61-2.28.84-1,.36-3.43.81-3.18.37-.33,0-3.55,0-3.48-.48-3.44-.86-2-.81-1.28-.51L92,201.88l-2.9-2-2.62-2.37-61.91-63.3-3-3-3.21-3.32-.25-.25-2.32-2.65-.42-.62L13.81,122l-.73-1.4-.89-1.76-.75-2.12L11,115.5l-.67-2.76-.14-.7-.39-3.34v-.14l0-3.55.06-.36.41-3.15.23-.87.64-2.54.56-1.42.75-1.87,1-2,.65-1.14,1.78-2.54.25-.34,2.37-2.62.51-.53,3.32-3.23,3-3,63-61.69,2.68-2.31,2.93-2,3.15-1.59L99.43,11l1-.39,3.46-.81,3.51-.39,3.52,0,3.51.47,3.43.89,2,.79,1.29.5,3.12,1.67,2.88,2,2.62,2.37,61.94,63.33,3,3,3.21,3.3.25.25,2.32,2.67.41.62,1.57,2.31.69,1.4.9,1.76.78,2.09.44,1.23.65,2.76.16.67.37,3.35Z"/><path class="cls-2" d="M205.56,103l-.64-2.76L204.48,99l-.79-2.09-.89-1.76-.7-1.4-1.56-2.31-.42-.62-2.31-2.67-.25-.25-3.21-3.3-3-3L129.43,18.19l-2.63-2.37-2.87-2-3.13-1.67-1.28-.5-2-.79-3.43-.89-3.52-.47-3.51,0-3.52.39-3.46.81-1,.39-2.26.84-3.15,1.59-2.93,2-2.68,2.31-63,61.69-3,3-3.32,3.23-.5.53L15.82,88.8l-.25.34-1.79,2.54-.64,1.14-1,2-.75,1.87-.56,1.42-.64,2.54-.23.87-.42,3.15,0,.36,0,3.55v.14L9.82,112l.14.7.67,2.76.45,1.2.75,2.12.89,1.76.73,1.4L15,124.29l.42.62,2.31,2.65.26.25,3.2,3.32,3,3,61.91,63.3,2.62,2.37,2.9,2,3.1,1.67,1.28.51,2,.81,3.43.86,3.49.48,3.54,0,.34,0,3.18-.37,3.43-.81,1-.36,2.29-.84,3.15-1.61,2.93-2,2.65-2.31,63-61.69,3-2.95,3.32-3.27.53-.5,2.37-2.62.25-.37,1.79-2.53.61-1.15,1.06-2,.76-1.9.53-1.39.67-2.54.22-.9L206,111l.05-.36,0-3.55,0-.16-.36-3.35Zm-53-47.63L154.23,57,156,58.78l3.74,3.83,4.13,4.24,4.49,4.57,2.7,2.76,2.4,2.46,2.1,2.15,1.78,1.81.92,1h0l-6.67.56-.05,0-6.73.17-6.58-.17-.17,0-6.61-.56h-.09l-6.66-1L138,78.79l-6.58-2.15-6.5-2.46-6.34-2.76,8.21-4.57,8.42-4.24,8.62-3.83L148.29,57ZM94.33,24.77l.31-.27,1.86-1.59.31-.26,2.07-1.31.33-.19,2.23-1,.34-.14,2.4-.67.33-.11,2.57-.33.25,0,2.82,0,2.2.33.59.11,2.23.67.47.14,2.15,1,.42.19,2,1.31.39.26,1.79,1.59.33.27L139.5,42l5.1,5.22-.33.11-7.51,2.87-5,2.15-2.68,1.15L121.78,57l-.22.11-7.34,4-.47.31-2.88,1.7-3.82,2.31-3.77-2.31-2.79-1.7-.39-.31-5.74-4L94.19,57l-4.58-3.57-1.48-1.15-2.51-2.15-3.29-2.87-.14-.11L76.78,42ZM59.82,58.59l4.91-4.83,3.71-3.6,1.5-1.48,1.51,1.48,3.68,3.6,5.47,4.83,4.66,3.68,1.06.84,5.11,3.63.83.58L98,71l.42.25-4.88,3.65-2,1.51-2.59,2.12-3.83,3.13-.25.22-.39-.22L78.7,78.48l-3.48-2.12-2.46-1.51L67.38,71.2,67,71l-4.8-3.63-.78-.58-4.36-3.63-1-.84Zm-23.52,23,4-3.94,4.33-4.21L47.21,71l2-2,2.29,2,2.93,2.51,5.44,4.21,5.64,3.94L67.68,83l3.66,2.29,3.49,1.95,2.51,1.43L74.8,91.18l-3.6,3.59,0,.06L68.1,98.18l-2.65,2.93-.08.08-.22-.08-6.23-2.93-6.27-3.35-.09-.06-6-3.59-3.8-2.54-2.12-1.43L38,85.26,34.93,83ZM20.12,108.86l-1.29-.81.06-2.37v-.36l.42-2.68.14-.47.64-2.12.81-1.76.33-.73,1.48-2.28,1-1.15.78-.92,2.09-2,1.56-1.57,2,1.57,2.63,2,1.14.92,1.67,1.15,3.3,2.28,1,.73,2.82,1.76,3.37,2.12.89.47,4.89,2.68.64.36,4.91,2.37,1.65.81L57,111.63,54.52,115l-.7.94L52.42,118l-1.87,2.73L49,123l-.08.11L48.6,123l-6-2.35L36.46,118l-4.15-2.07L30.44,115l-5.89-3.32Zm21,27.57-.56,1-1-1-4.8-4.91L32.7,129.4,30.38,127l-1.59-1.65-.92-.95,1.93.95L33.09,127l5.33,2.37,5.44,2.12Zm155.54-27.57,0,1.34-.19,1.31-.23,1.51-.25.75-.55,1.85,0,.11-.62,1.31-.47,1-.11.28-.7,1.06-.61.92-.06.06-.19.31-1.87,2.12-.84.83-3,2.93-2.65,2.6L182,131.35l-1.85,1.79-1.36,1.34-1.48,1.45-3.57,3.48-3.29,3.21-3,2.9-2.6,2.54-2.17,2.18L161,152l-2.59,2.54-2.18,2.12-1.76,1.73-1.34,1.31-.92.89-.55.56-.23.22L121.2,190.89l-.31.31-1.84,1.56-.31.25-2.06,1.31-.34.2-2.26,1-.33.14-2.4.7-.31.08-2.59.34-.23,0-2.84,0-2.21-.34-.58-.08-2.21-.7-.5-.14-2.12-1-.45-.2-2-1.31-.39-.25-1.79-1.56-.33-.31L64,161.34l-.09-.11,6.7.11,6.72-.22,6.7-.56,6.64-.89,6.16-1.31,6.09-1.73,5.91-2.12,5.78-2.54,3.71-1.73,3.46-2.18,3.2-2.54,2.88-2.9,2.54-3.21,2.14-3.48-.86.5L129,138l-1.9,1.09-.2.11-1.11.59-.42.22-4.21,2.15-1.2.56-4.72,2.09-6,2.31-6.14,2-6.25,1.64-2.57.34-4.54.61-2.77.22-4.4.4-3.46.11-3.71.11-7.17-.11-1.71-.11-5.46-.4-1.93-.22-5.19-.61-.33-.34L52,149.07l-1.93-2-2.26-2.31-2.06-2.09.36-.56L47.43,140l.17-.25L48,139l.45-.69.33-.51,1.12-1.67,1.12-1.67.28-.42,1.64.42,6.14,1.67L67,137.82l3.43.51,4.52.69,8,.73,8,.25,8.06-.22,5.22-.59,1-.11,6.22-1.09,6.11-1.56,1.54-.5,4.46-1.45,3.85-1.34,3.69-1.79,3.43-2.23,3.15-2.6,2.85-2.93.61-.83,1.62-2.12.25-.31-.95.42-.11,0L137.18,123l-6,2.34-1.48.5L125,127.42l-2,.55-4.18,1.15-2.32.5-4,.87-2,.3-4.38.7h-.47l-1.12,0-6.64.19-7-.19-1.2,0h-.14l-8.06-.7-2.18-.3-6-.87-2.42-.5L65.2,128l-2.09-.55-5.86-1.54.39-.5L59.51,123l1.76-2.24.39-.47.64-.84.31-.36.72-.84,1.31-1.56,1.65-1.9,1.76-2,.16-.2.59.2,6.08,2,6.75,1.9,6.87,1.56,4.82.84,2.1.36,7,.84,7,.47,6.31,0,5.47-.42.81-.06,6.25-.92,4.91-1.06,1.25-.28,4-1,3.57-1.31.26-.11,3.65-1.85L147,113l2.26-1.51,1.51-1.31,1.62-1.34,1.37-1.47,1.39-1.51-4.32,1.48L149,108l-4.52,1.26-1.7.47-4.72,1.06-1.59.36-5,.84-1.42.22-5.39.62-1,.11-2,.11-4.47.25-3.76-.25-1.65-.11-1.73-.11-5.1-.62-2-.22L98,111.12l-2.12-.36-4.8-1.06-2.18-.47L84.28,108l-2.23-.61-4.55-1.48-2.26-.75.59-.56.89-.87.14-.14.59-.58,1.23-1.17,1.59-1.57,1.08-1,1-.86,2.49-2.24,2.87-2.56,0,0,0,0,6.52,2.56,6.7,2.24,3,.86,3.77,1,6.89,1.57,7,1.17,6.27.58,6.31.14,6.3-.28,6.25-.72,4.05-.59,1.06-.25,2.9-.75,3.82-1.51.64-.33,3-1.57,1.2-.83,2.18-1.51.75-.67,2.32-2-3.69.87-2.62.58-5.22.92-1.14.23-6.42.78-3.15.19-3.29.23-6.47,0-1.57,0-4.91-.23-1.2-.19-4.63-.78-1.2-.23-4.18-.92-2.79-.58L113,92.68l-3.74-1-6.78-2.2-1.76-.67-.25-.12-.64-.22-2-.78-2-.78.58-.42,2.46-1.84,2.9-2.18.78-.58,2.82-1.93,3.29-2.26.81-.56,1.29.56,5,2.26,5,1.93,1.51.58,6.58,2.18,6.7,1.84,2.2.42,4,.78,6.28.78,4.55.22,1.73.12,6.3-.12,4.08-.13,4-.65,3.94-1.08,3.76-1.54,1.17-.64,2.4-1.31,1.29,1.31.64.64,1.51,1.54,1.06,1.08.61.65.14.13.11.12.64.67,2.18,2.2,1,1,2,2,.56.67,1.26,1.51.53.83,1,1.57.17.33.64,1.51.34.75.08.25.17.59.19.72.09.28.25.87,0,.56.12.75.19,1.51Z"/><path class="cls-3" d="M215.22,103.62l-.06-.67-.56-2.76L214.38,99l-.67-2.09-.56-1.76-.58-1.4-1-2.31-.36-.62-1.51-2.67-.14-.25-2.34-3.3-2.68-3L142.62,18.19l-2.31-2.37-2-2-1.65-1.67-.47-.5-.87-.79-.95-.89-.5-.47-.05,0-.62-.59-.7-.5-2.56-1.9L129.17,6l-2.7-1.59L125.63,4l-2.84-1.31-.9-.28-3-1-1-.22L115,.5,113.86.39,111,.06l-4-.06-.47.06-3.55.33-.67.11-3.32.67-.67.22-3.18,1-.69.28L91.34,4l-.69.39L87.8,6l-.64.47-2.65,1.9-.62.5-.64.59-.44.39-.93.81-.41.39-.87.84L79,13.45l-2,2-2.37,2.31-63,61.69-2.74,3-2.4,3.23-.3.53L4.58,88.8l-.2.34L3.21,91.68l-.53,1.14L2,94.8l-.65,1.87-.3,1.42L.5,100.63l-.08.87-.36,3.15L0,105l0,3.55v.14L.31,112l.08.7L1,115.5l.22,1.2.67,2.12.56,1.76L3,122l1,2.31.33.62,1.51,2.65.14.25,2.34,3.32,2.68,3,61.94,63.3,2.31,2.37,2,2,1.64,1.67.5.51.84.81,1,.86.5.48,0,0,.64.59.7.53,2.54,1.87.78.47,2.7,1.59.84.39L92.77,213l.89.31,3,1,.94.22,3,.67,1.14.14,2.88.34,4,0,.48,0,3.57-.34.64-.14,3.32-.67.7-.22,3.18-1,.7-.31,3-1.31.67-.39,2.84-1.59.65-.47,2.67-1.87.59-.53.64-.59.06,0,.39-.37.92-.81.44-.36.84-.84,1.65-1.61,2-2,2.35-2.31,63-61.69,2.73-2.95,2.43-3.27.3-.5,1.54-2.62.22-.37,1.15-2.53.53-1.15.66-2,.65-1.9.3-1.39.56-2.54.11-.9.37-3.12v-.36l.05-3.55V107Zm-9.1,3.51,0,3.55L206,111l-.42,3.12-.22.9-.67,2.54L204.2,119l-.76,1.9-1.06,2-.61,1.15L200,126.52l-.25.37-2.37,2.62-.53.5-3.32,3.27-3,2.95-63,61.69-2.65,2.31-2.93,2-3.15,1.61-2.29.84-1,.36-3.43.81-3.18.37-.34,0-3.54,0-3.49-.48L98,204.87l-2-.81-1.28-.51-3.1-1.67-2.9-2-2.62-2.37-61.91-63.3-3-3L18,127.81l-.26-.25-2.31-2.65-.42-.62L13.45,122l-.73-1.4-.89-1.76-.75-2.12-.45-1.2L10,112.74l-.14-.7-.39-3.34v-.14l0-3.55,0-.36.42-3.15.23-.87.64-2.54.56-1.42.75-1.87,1-2,.64-1.14,1.79-2.54.25-.34,2.37-2.62.5-.53L22,82.42l3-3,63-61.69,2.68-2.31,2.93-2,3.15-1.59L99.07,11l1-.39,3.46-.81,3.52-.39,3.51,0,3.52.47,3.43.89,2,.79,1.28.5,3.13,1.67,2.87,2,2.63,2.37,61.93,63.33,3,3,3.21,3.3.25.25,2.31,2.67.42.62,1.56,2.31.7,1.4.89,1.76.79,2.09.44,1.23.64,2.76.17.67.36,3.35Z"/><polygon class="cls-3" points="82.33 47.29 85.62 50.16 88.13 52.31 89.61 53.45 94.19 57.03 94.36 57.14 100.1 61.1 100.49 61.41 103.28 63.11 107.05 65.42 110.87 63.11 113.75 61.41 114.22 61.1 121.56 57.14 121.78 57.03 129.09 53.45 131.77 52.31 136.76 50.16 144.27 47.29 144.6 47.18 139.5 41.96 122.7 24.77 122.37 24.5 120.58 22.91 120.19 22.65 118.21 21.34 117.79 21.15 115.64 20.14 115.17 20 112.94 19.33 112.35 19.22 110.15 18.89 107.33 18.86 107.08 18.89 104.51 19.22 104.18 19.33 101.78 20 101.44 20.14 99.21 21.15 98.88 21.34 96.81 22.65 96.5 22.91 94.64 24.5 94.33 24.77 76.78 41.96 82.19 47.18 82.33 47.29"/><polygon class="cls-3" points="135.2 62.61 126.78 66.85 118.57 71.42 124.91 74.19 131.41 76.64 137.99 78.79 144.69 80.6 151.35 81.58 151.44 81.58 158.05 82.14 158.22 82.16 164.8 82.33 171.53 82.16 171.58 82.14 178.25 81.58 178.22 81.58 177.3 80.6 175.52 78.79 173.42 76.64 171.02 74.19 168.32 71.42 163.83 66.85 159.7 62.61 155.96 58.78 154.23 57.03 152.58 55.33 148.29 57.03 143.82 58.78 135.2 62.61"/><polygon class="cls-3" points="61.41 66.74 62.19 67.32 66.99 70.95 67.38 71.2 72.76 74.85 75.22 76.36 78.7 78.48 84.45 81.61 84.84 81.83 85.09 81.61 88.92 78.48 91.51 76.36 93.52 74.85 98.4 71.2 97.98 70.95 92.26 67.32 91.43 66.74 86.32 63.11 85.26 62.27 80.6 58.59 75.13 53.76 71.45 50.16 69.94 48.69 68.44 50.16 64.73 53.76 59.82 58.59 56.05 62.27 57.05 63.11 61.41 66.74"/><polygon class="cls-3" points="40.62 87.21 42.74 88.64 46.54 91.17 52.56 94.78 52.65 94.83 58.92 98.18 65.14 101.11 65.37 101.19 65.45 101.11 68.1 98.18 71.17 94.83 71.2 94.78 74.8 91.17 77.34 88.64 74.83 87.21 71.34 85.26 67.68 82.97 65.51 81.61 59.87 77.67 54.43 73.46 51.5 70.95 49.22 68.97 47.21 70.95 44.64 73.46 40.31 77.67 36.3 81.61 34.93 82.97 38 85.26 40.62 87.21"/><polygon class="cls-3" points="196.38 105.13 196.33 104.57 196.08 103.7 195.99 103.42 195.8 102.7 195.63 102.11 195.55 101.86 195.21 101.11 194.57 99.6 194.4 99.27 193.43 97.7 192.9 96.87 191.64 95.36 191.08 94.69 189.1 92.68 188.1 91.65 185.92 89.45 185.28 88.78 185.17 88.67 185.03 88.53 184.42 87.88 183.35 86.8 181.85 85.26 181.21 84.62 179.92 83.31 177.52 84.62 176.35 85.26 172.59 86.8 168.65 87.88 164.61 88.53 160.53 88.67 154.23 88.78 152.5 88.67 147.95 88.44 141.67 87.66 137.71 86.88 135.51 86.46 128.81 84.62 122.23 82.44 120.72 81.86 115.75 79.93 110.7 77.67 109.42 77.11 108.61 77.67 105.32 79.93 102.5 81.86 101.72 82.44 98.82 84.62 96.36 86.46 95.78 86.88 97.79 87.66 99.8 88.44 100.44 88.67 100.69 88.78 102.45 89.45 109.23 91.65 112.97 92.68 116.12 93.55 118.91 94.13 123.09 95.05 124.29 95.28 128.92 96.06 130.12 96.25 135.03 96.48 136.6 96.53 143.07 96.48 146.36 96.25 149.51 96.06 155.93 95.28 157.07 95.05 162.29 94.13 164.91 93.55 168.6 92.68 166.28 94.69 165.53 95.36 163.35 96.87 162.15 97.7 159.19 99.27 158.55 99.6 154.73 101.11 151.83 101.86 150.77 102.11 146.72 102.7 140.47 103.42 134.17 103.7 127.86 103.56 121.59 102.98 114.64 101.81 107.75 100.24 103.98 99.21 100.94 98.35 94.24 96.11 87.72 93.55 87.69 93.52 87.66 93.55 84.79 96.11 82.3 98.35 81.36 99.21 80.27 100.24 78.68 101.81 77.45 102.98 76.86 103.56 76.72 103.7 75.83 104.57 75.25 105.13 77.5 105.88 82.05 107.36 84.28 107.97 88.94 109.23 91.12 109.7 95.92 110.76 98.04 111.12 102.98 111.96 104.99 112.18 110.09 112.8 111.82 112.91 113.47 113.02 117.23 113.27 121.7 113.02 123.68 112.91 124.71 112.8 130.09 112.18 131.52 111.96 136.48 111.12 138.07 110.76 142.79 109.7 144.49 109.23 149.01 107.97 150.8 107.36 155.12 105.88 153.73 107.39 152.36 108.86 150.74 110.2 149.23 111.51 146.97 113.02 145.83 113.77 142.18 115.61 141.93 115.73 138.35 117.04 134.39 118.02 133.14 118.29 128.23 119.35 121.98 120.28 121.17 120.33 115.7 120.75 109.39 120.81 102.39 120.33 95.42 119.49 93.32 119.13 88.5 118.29 81.63 116.73 74.88 114.83 68.8 112.8 68.21 112.6 68.05 112.8 66.29 114.83 64.64 116.73 63.33 118.29 62.61 119.13 62.3 119.49 61.66 120.33 61.27 120.81 59.51 123.04 57.64 125.38 57.25 125.88 63.11 127.42 65.2 127.97 70.84 129.12 73.26 129.62 79.23 130.49 81.41 130.79 89.47 131.49 89.61 131.49 90.81 131.52 97.84 131.71 104.48 131.52 105.6 131.49 106.07 131.49 110.45 130.79 112.46 130.49 116.48 129.62 118.8 129.12 122.98 127.97 125.02 127.42 129.68 125.88 131.16 125.38 137.18 123.04 142.01 120.81 142.12 120.75 143.07 120.33 142.82 120.64 141.2 122.76 140.59 123.59 137.74 126.52 134.59 129.12 131.16 131.35 127.47 133.14 123.62 134.47 119.16 135.93 117.62 136.43 111.51 137.99 105.29 139.08 104.26 139.19 99.04 139.78 90.98 140 82.94 139.75 74.94 139.02 70.42 138.33 66.99 137.82 59.12 136.15 52.98 134.47 51.34 134.06 51.06 134.47 49.94 136.15 48.82 137.82 48.49 138.33 48.04 139.02 47.6 139.75 47.43 140 46.06 142.15 45.7 142.71 47.76 144.8 50.02 147.11 51.95 149.07 53.57 150.71 53.9 151.05 59.09 151.66 61.02 151.88 66.48 152.28 68.19 152.39 75.36 152.5 79.07 152.39 82.53 152.28 86.94 151.88 89.7 151.66 94.24 151.05 96.81 150.71 103.06 149.07 109.2 147.11 115.25 144.8 119.97 142.71 121.17 142.15 125.38 140 125.8 139.78 126.92 139.19 127.11 139.08 129.01 137.99 131.63 136.43 132.5 135.93 130.35 139.41 127.81 142.62 124.93 145.52 121.72 148.06 118.27 150.24 114.56 151.97 108.78 154.51 102.86 156.63 96.78 158.36 90.62 159.67 83.98 160.56 77.28 161.12 70.56 161.34 63.86 161.23 63.95 161.34 92.85 190.89 93.18 191.19 94.97 192.76 95.36 193.01 97.31 194.32 97.76 194.51 99.88 195.52 100.38 195.66 102.59 196.36 103.17 196.44 105.38 196.78 108.22 196.8 108.44 196.78 111.04 196.44 111.35 196.36 113.75 195.66 114.08 195.52 116.34 194.51 116.68 194.32 118.74 193.01 119.05 192.76 120.89 191.19 121.19 190.89 151.38 161.34 151.61 161.12 152.16 160.56 153.08 159.67 154.42 158.36 156.18 156.63 158.36 154.51 160.95 151.97 162.74 150.24 164.91 148.06 167.51 145.52 170.47 142.62 173.76 139.41 177.33 135.93 178.81 134.47 180.18 133.14 182.02 131.35 184.28 129.12 186.93 126.52 189.94 123.59 190.78 122.76 192.65 120.64 192.84 120.33 192.9 120.28 193.51 119.35 194.21 118.29 194.32 118.02 194.79 117.04 195.41 115.73 195.44 115.61 195.99 113.77 196.25 113.02 196.47 111.51 196.66 110.2 196.69 108.86 196.69 107.39 196.5 105.88 196.38 105.13"/><polygon class="cls-3" points="32.31 115.89 36.47 117.96 42.63 120.69 48.6 123.04 48.91 123.15 48.99 123.04 50.55 120.69 52.42 117.96 53.82 115.89 54.52 114.95 56.97 111.63 59.03 108.86 57.39 108.06 52.48 105.68 51.84 105.32 46.95 102.64 46.06 102.17 42.69 100.05 39.87 98.29 38.84 97.56 35.54 95.28 33.87 94.13 32.73 93.21 30.1 91.17 28.12 89.61 26.56 91.17 24.47 93.21 23.69 94.13 22.71 95.28 21.23 97.56 20.9 98.29 20.09 100.05 19.45 102.17 19.31 102.64 18.89 105.32 18.89 105.68 18.83 108.06 20.12 108.86 24.55 111.63 30.44 114.95 32.31 115.89"/><polygon class="cls-3" points="33.09 127.03 29.8 125.38 27.87 124.43 28.79 125.38 30.38 127.03 32.7 129.4 34.79 131.52 39.59 136.43 40.59 137.46 41.15 136.43 43.86 131.52 38.42 129.4 33.09 127.03"/><path class="cls-3" d="M233.05,111.12V81.18h6.72V93.4h10l9.87-12.22H268L255.64,96.13l12.35,15h-8.36l-9.91-12.26h-9.95v12.26Z"/><path class="cls-3" d="M271.35,111.12v-30h32.93v5.46H278.07v6.64h23.77v5.46H278.07v7h26.21v5.46Z"/><path class="cls-3" d="M308.9,111.12v-30h5.63l13.9,9.75h.21l13.9-9.75h5.63v30h-6.72V89.49l-9.53,6.39v15.24h-6.73V95.88l-9.57-6.39v21.63Z"/><path class="cls-3" d="M366.19,111.33a17.85,17.85,0,0,1-7.23-1.2,7.29,7.29,0,0,1-3.78-3.63,14.62,14.62,0,0,1-1.13-6.13V81.09h6.72v19.28c0,2.13.5,3.58,1.49,4.35s2.68,1.15,5.06,1.15h8.11c2.38,0,4.06-.38,5.06-1.15s1.49-2.22,1.49-4.35V81.09h6.72v19.28a14.46,14.46,0,0,1-1.14,6.13,7.22,7.22,0,0,1-3.78,3.63,17.79,17.79,0,0,1-7.22,1.2Z"/><path class="cls-3" d="M394.58,111.12v-30h6.8l21.25,21.59V81.09h6.72v30h-6.8L401.3,89.49v21.63Z"/><path class="cls-3" d="M450.69,111.33q-8.31,0-12.73-3.84t-4.41-11.4q0-7.53,4.41-11.39t12.73-3.82l15.12.09v5.37H451.15q-5.46,0-8.1,2.31t-2.65,7.44c0,3.41.88,5.9,2.65,7.45s4.46,2.33,8.1,2.33h15.08v5.46Z"/><path class="cls-3" d="M467.91,111.12l13.52-30h10.38l13.52,30H498l-2.85-6.34h-17.1l-2.85,6.34Zm12.6-11.8h12.22l-5.84-13h-.54Z"/><path class="cls-3" d="M508.69,111.12V81.18h6.72V93.4h10l9.87-12.22h8.35L531.29,96.13l12.34,15h-8.35l-9.91-12.26h-10v12.26Z"/><path class="cls-3" d="M561.69,111.12v-30h6.72v24.57h22v5.46Z"/><path class="cls-3" d="M592.06,111.12l13.52-30H616l13.52,30h-7.31l-2.85-6.34h-17.1l-2.85,6.34Zm12.6-11.8h12.22l-5.84-13h-.54Z"/><path class="cls-3" d="M632.84,111.12v-30h6.81l21.25,21.59V81.09h6.72v30h-6.81L639.56,89.49v21.63Z"/><path class="cls-3" d="M671,111.12l13.52-30h10.38l13.52,30h-7.31l-2.85-6.34h-17.1l-2.85,6.34Zm12.6-11.8H695.8l-5.84-13h-.54Z"/><path class="cls-3" d="M711.76,111.12v-30h6.72v30Z"/><path class="cls-3" d="M233.55,143.49v-3.81l16.85,0a2.93,2.93,0,0,0,2-.6,3.1,3.1,0,0,0,0-3.9,2.93,2.93,0,0,0-2-.6H239.91a7.49,7.49,0,0,1-5.06-1.57,6.83,6.83,0,0,1,0-9.24,7.49,7.49,0,0,1,5.06-1.56h16.47v3.81l-16,0a3.06,3.06,0,0,0-2,.57,2.74,2.74,0,0,0,0,3.66,3.06,3.06,0,0,0,2,.57H250.9a7.4,7.4,0,0,1,5.06,1.6,7.11,7.11,0,0,1,0,9.46,7.35,7.35,0,0,1-5.06,1.61Z"/><path class="cls-3" d="M260.69,143.34v-21h3.46l9.38,0q5.69,0,8.82,2.67t3.14,7.83q0,5.16-3.14,7.82t-8.82,2.67Zm12.52-17.18h-7.83v13.37h7.83a8.5,8.5,0,0,0,5.6-1.61q1.9-1.62,1.9-5.07c0-2.33-.63-4-1.9-5.09A8.56,8.56,0,0,0,273.21,126.16Z"/><path class="cls-3" d="M288.42,143.34v-21h4.75L308,137.45V122.38h4.69v21h-4.75l-14.83-15.09v15.09Z"/><path class="cls-3" d="M327.06,143.34v-20.9l17.64-.06a7.85,7.85,0,0,1,5.18,1.45,5.45,5.45,0,0,1,1.68,4.36,4.82,4.82,0,0,1-1.93,4.25,4.55,4.55,0,0,1,1.9,1.86,6.29,6.29,0,0,1,.62,3,5.75,5.75,0,0,1-1.69,4.5c-1.12,1-2.85,1.54-5.17,1.54Zm17.09-17.21h-12.4v4.69h12.4c1.77,0,2.66-.8,2.66-2.4S345.92,126.13,344.15,126.13Zm.58,8.45h-13v5h13q2.67,0,2.67-2.52T344.73,134.58Z"/><path class="cls-3" d="M355.37,143.34v-21h4.69V131h14.78v-8.59h4.69v21h-4.69v-8.56H360.06v8.56Z"/><path class="cls-3" d="M383.63,143.34v-21h3.46l9.38,0q5.68,0,8.82,2.67t3.14,7.83q0,5.16-3.14,7.82t-8.82,2.67Zm12.52-17.18h-7.83v13.37h7.83a8.52,8.52,0,0,0,5.6-1.61q1.9-1.62,1.9-5.07c0-2.33-.63-4-1.9-5.09A8.57,8.57,0,0,0,396.15,126.16Z"/></g></g></svg>