<svg xmlns="http://www.w3.org/2000/svg" viewBox="0 0 431.75 454.85"><defs><style>.cls-1{fill:#fff;}.cls-2{fill:none;}.cls-3{fill:#030c69;}</style></defs><g id="Layer_2" data-name="Layer 2"><g id="Layer_1-2" data-name="Layer 1"><path class="cls-1" d="M365.48,169.41l-.05,5.6-.09.58-.66,4.94-.35,1.41-1.06,4-.84,2.2-1.19,3-1.68,3.09-1,1.81-2.82,4-.4.58-3.75,4.14-.84.8-5.25,5.16-4.8,4.68L241.11,313l-4.19,3.66-4.64,3.13-5,2.56-3.62,1.33-1.63.57-5.43,1.28-5,.57-.53.05-5.6-.05-5.51-.75L194.52,324l-3.18-1.28-2-.8-4.89-2.64L179.83,316l-4.15-3.75-97.9-100.1-4.72-4.81L68,202.1l-.4-.39-3.66-4.2-.66-1-2.47-3.66-1.15-2.2-1.41-2.78-1.19-3.36-.71-1.89-1.06-4.37-.22-1.1-.61-5.3v-.22l0-5.6.09-.57.66-5,.35-1.37,1-4,.88-2.25,1.19-3,1.63-3.13,1-1.81,2.82-4,.4-.53,3.75-4.15.79-.84,5.25-5.12,4.81-4.72,99.62-97.54L183,24.4l4.64-3.14,5-2.51,3.58-1.32,1.63-.62,5.47-1.28,5.56-.62,5.56.05,5.56.75,5.42,1.41,3.13,1.23,2,.8,4.94,2.64L240.05,25l4.15,3.75,97.94,100.15,4.72,4.81,5.07,5.21.4.39,3.66,4.24.66,1,2.47,3.66,1.11,2.21,1.41,2.78,1.23,3.31.71,1.94,1,4.36.27,1.06.57,5.3Z"/><path class="cls-2" d="M364,162.79l-1-4.36-.7-1.94-1.24-3.31-1.41-2.78-1.1-2.21-2.47-3.66-.66-1-3.67-4.24-.39-.39-5.08-5.21-4.72-4.81L243.62,28.76,239.48,25l-4.55-3.22L230,19.15l-2-.8-3.13-1.23-5.43-1.41L213.84,15l-5.56-.05-5.55.62-5.48,1.28-1.63.62-3.57,1.32-5,2.51-4.63,3.14-4.23,3.66L78.58,125.6l-4.81,4.72-5.25,5.12-.79.84L64,140.43l-.4.53-2.83,4-1,1.81-1.63,3.13-1.19,3L56,155.12l-1,4-.35,1.37-.67,5-.08.57-.05,5.6v.22l.62,5.3.22,1.1,1.06,4.37.71,1.89,1.19,3.36,1.41,2.78,1.15,2.2,2.47,3.66.66,1,3.66,4.2.4.39,5.07,5.25,4.72,4.81,97.9,100.1,4.14,3.75,4.59,3.23,4.9,2.64,2,.8L194,324l5.42,1.36,5.52.75,5.6.05.53-.05,5-.57,5.43-1.28,1.63-.57,3.62-1.33,5-2.56,4.63-3.13,4.19-3.66,99.62-97.54,4.81-4.68,5.25-5.16.84-.8,3.75-4.14.4-.58,2.82-4,1-1.81,1.68-3.09,1.19-3,.84-2.2,1.05-4,.36-1.41.66-4.94.09-.58,0-5.6,0-.26-.58-5.3Zm-83.78-75.3,2.6,2.69L285.58,93l5.91,6,6.53,6.71,7.1,7.23,4.28,4.37,3.8,3.88,3.3,3.4,2.83,2.87,1.45,1.54h.05l-10.55.88-.08.05-10.64.26-10.41-.26-.26-.05L278.43,129h-.13l-10.55-1.54-10.58-2.87-10.42-3.4-10.27-3.88-10-4.37,13-7.23L252.75,99l13.64-6,7.06-2.78ZM188.12,39.18l.49-.44,2.95-2.52.49-.4,3.26-2.07.53-.31,3.53-1.59.53-.22,3.8-1.06.53-.17,4.05-.53.4-.05,4.46.05,3.48.53.93.17,3.53,1.06.75.22,3.4,1.59.66.31L229,35.82l.62.4,2.82,2.52.53.44,26.56,27.17,8.07,8.25-.53.18-11.86,4.54-7.9,3.4-4.24,1.81-11.56,5.65-.35.17-11.6,6.27-.75.48-4.55,2.69-6,3.67-6-3.67-4.41-2.69-.62-.48-9.08-6.27-.27-.17-7.23-5.65-2.34-1.81-4-3.4-5.21-4.54-.22-.18-8.56-8.25ZM133.55,92.65,141.31,85l5.87-5.69L149.56,77,152,79.32,157.77,85l8.65,7.64,7.36,5.82,1.68,1.32,8.07,5.74,1.33.93,9,5.73.66.4-7.72,5.78-3.17,2.38-4.11,3.35-6,4.94-.4.36-.62-.36-9.08-4.94-5.52-3.35L154,118.37l-8.52-5.78-.61-.4-7.59-5.73-1.24-.93-6.88-5.74-1.59-1.32ZM96.36,129l6.35-6.22,6.84-6.66,4.06-4,3.17-3.13,3.62,3.13,4.63,4,8.61,6.66,8.91,6.22,3.44,2.17,5.78,3.61,5.51,3.09,4,2.25-4,4-5.69,5.69-.05.09-4.85,5.29-4.19,4.63-.13.13-.35-.13-9.84-4.63L122.21,150l-.13-.09-9.53-5.69-6-4-3.35-2.25-4.15-3.09-4.85-3.61ZM70.77,172.15l-2-1.28.09-3.75v-.58l.66-4.23.22-.75,1-3.35L72,155.43l.53-1.15,2.34-3.62,1.55-1.81,1.23-1.45L81,144.18l2.47-2.47,3.13,2.47,4.15,3.22,1.81,1.45,2.65,1.81,5.2,3.62,1.63,1.15,4.46,2.78,5.34,3.35,1.41.75,7.72,4.23,1,.58,7.76,3.75,2.6,1.28-3.26,4.36-3.88,5.25-1.11,1.5-2.2,3.27-3,4.32-2.47,3.71-.13.18-.49-.18-9.44-3.71-9.75-4.32-6.57-3.27-3-1.5-9.31-5.25ZM104,215.74l-.88,1.63-1.59-1.63L94,208l-3.31-3.35L87,200.87l-2.51-2.61L83,196.76l3,1.5,5.2,2.61,8.43,3.75,8.6,3.35Zm246-43.59,0,2.11-.31,2.08-.36,2.38-.39,1.19-.89,2.91,0,.18-1,2.07-.75,1.55-.18.44-1.1,1.68-1,1.45-.09.09-.31.48-2.95,3.36-1.33,1.32-4.76,4.63-4.19,4.11-3.58,3.53-2.91,2.82-2.16,2.12-2.34,2.29-5.64,5.52-5.21,5.07-4.68,4.59-4.1,4-3.44,3.44-2.82,2.74-4.11,4-3.44,3.36-2.78,2.73L281,252.49l-1.45,1.41-.88.88-.36.35-47.73,46.72-.49.49-2.91,2.47-.48.4-3.27,2.07-.53.31-3.57,1.59-.53.22-3.8,1.1-.48.13-4.1.53-.36,0-4.5,0-3.48-.53-.93-.13-3.48-1.1-.8-.22-3.35-1.59-.71-.31-3.09-2.07-.61-.4-2.83-2.47-.53-.49-45.7-46.72L140,255l10.58.17,10.64-.35,10.58-.88,10.5-1.41,9.75-2.08,9.62-2.73,9.36-3.36,9.13-4,5.87-2.74,5.47-3.44,5.07-4,4.54-4.59,4-5.07,3.4-5.52-1.37.8L243,218.21l-3,1.72-.31.17-1.76.93-.66.35-6.67,3.4-1.89.88L221.21,229l-9.57,3.66-9.71,3.09-9.88,2.6-4.06.53-7.19,1-4.37.36-7,.61L164,241l-5.87.18L146.78,241l-2.69-.18-8.64-.61-3-.36-8.2-1-.53-.53-2.56-2.6-3-3.09L114.49,229l-3.26-3.31.57-.88,2.16-3.4.27-.39.7-1.15.71-1.1.53-.8,1.76-2.65,1.77-2.64.44-.66,2.6.66,9.71,2.64,12.44,2.65,5.42.8,7.15,1.1L170.12,221l12.71.39,12.75-.35,8.25-.93,1.63-.17,9.84-1.72,9.66-2.47,2.43-.8,7.06-2.29,6.08-2.12,5.83-2.82,5.42-3.53,5-4.11,4.5-4.63,1-1.32,2.56-3.36.4-.48-1.5.66-.18.09-7.63,3.53-9.53,3.7-2.34.8-7.37,2.43-3.22.88-6.62,1.81-3.66.79-6.35,1.37-3.18.48-6.92,1.11H206l-1.77,0-10.5.31L182.56,208l-1.89,0h-.22l-12.75-1.11-3.45-.48L154.81,205l-3.83-.79-8.92-1.81-3.31-.88-9.26-2.43.62-.8,2.95-3.7,2.78-3.53.62-.75,1-1.32.48-.58,1.15-1.32,2.07-2.47,2.6-3,2.78-3.22.27-.31.92.31,9.62,3.22,10.68,3,10.85,2.47,7.63,1.32,3.31.58,11,1.32L212,191l10-.09,8.64-.66,1.28-.09,9.89-1.45,7.76-1.68,2-.44,6.26-1.55,5.65-2.07.39-.18,5.78-2.91,1.81-1.19,3.58-2.38,2.38-2.08,2.56-2.11,2.16-2.34,2.2-2.38-6.83,2.33-2.83,1-7.14,2-2.7.75-7.45,1.68-2.52.57L246.93,177l-2.25.36-8.51,1-1.64.17-3.13.18-7.06.4-6-.4-2.61-.18-2.73-.17-8.07-1L201.8,177,194,175.72l-3.35-.57-7.59-1.68-3.44-.75-7.37-2-3.53-1-7.19-2.33L158,166.24l.92-.89,1.41-1.36.22-.23.93-.92,1.94-1.85,2.52-2.48,1.72-1.63,1.5-1.37L173,152l4.55-4.06,0-.05,0,.05L188,152l10.59,3.52,4.81,1.37,6,1.63,10.9,2.48,11,1.85,9.92.92,10,.23,10-.45L271,162.4l6.39-.93,1.68-.4,4.59-1.19,6-2.38,1-.53,4.67-2.47,1.9-1.32,3.44-2.39,1.19-1,3.66-3.18-5.82,1.37-4.15.92-8.25,1.46-1.81.35-10.14,1.24-5,.31-5.2.35-10.24.09-2.47-.09-7.76-.35-1.9-.31-7.33-1.24-1.89-.35L227,148.85l-4.41-.92-5-1.37-5.91-1.63L201,141.44l-2.78-1.06-.4-.17-1-.36-3.18-1.23-3.17-1.24.92-.66,3.89-2.91,4.58-3.44,1.24-.93,4.45-3,5.21-3.58,1.28-.88,2,.88,8,3.58,7.86,3,2.38.93,10.41,3.44,10.59,2.91,3.49.66,6.26,1.24,9.93,1.23,7.19.36,2.73.17,10-.17,6.44-.22,6.4-1,6.22-1.72,6-2.43,1.85-1,3.8-2.07,2,2.07,1,1,2.38,2.43,1.68,1.72,1,1,.22.22.18.17,1,1.06,3.44,3.49,1.59,1.63,3.13,3.18.88,1,2,2.39.84,1.32,1.54,2.47.27.53,1,2.38.53,1.19.13.4.27.93.31,1.14.13.45.4,1.36.08.89.18,1.19.31,2.38Z"/><path class="cls-3" d="M379.28,163.85l-.08-1.06-.89-4.36-.35-1.94-1.06-3.31L376,150.4l-.93-2.21-1.59-3.66-.57-1-2.38-4.24-.22-.39-3.71-5.21-4.23-4.81L264.49,28.76,260.83,25l-3.18-3.22-2.6-2.64-.75-.8-1.37-1.23-1.5-1.41-.79-.75-.09-.05-1-.92-1.1-.8-4.06-3-1.19-.75L239,6.93l-1.33-.62-4.5-2.07-1.41-.45L227,2.21l-1.54-.36L220.77.79,219,.62,214.42.09,208,0l-.75.09-5.6.53-1.06.17-5.25,1.06-1.06.36-5,1.58-1.1.45L183.4,6.31l-1.1.62-4.5,2.51-1,.75-4.19,3-1,.8-1,.92-.71.62-1.45,1.28-.67.62-1.36,1.32-2.61,2.51-3.17,3.14-3.75,3.66L57.27,125.6,53,130.32l-3.8,5.12-.48.84-2.47,4.15-.31.53L44,145l-.83,1.81-1,3.13-1,3-.49,2.25-.93,4-.13,1.37-.57,5,0,.57,0,5.6v.22l.49,5.3.13,1.1.88,4.37.35,1.89,1.06,3.36.88,2.78.93,2.2,1.59,3.66.53,1,2.38,4.2.22.39,3.71,5.25,4.23,4.81,97.94,100.1L158,316l3.13,3.23,2.6,2.64.8.8L165.8,324l1.54,1.36.8.75,0,.05,1,.92,1.1.84,4,3,1.24.75,4.28,2.51,1.32.62,4.5,2.07,1.41.49,4.68,1.54,1.5.36,4.72,1.06,1.81.22,4.54.53,6.4,0,.75,0,5.65-.53,1-.22,5.25-1.06,1.11-.36,5-1.54,1.11-.49,4.76-2.07,1.06-.62,4.5-2.51,1-.75,4.23-3,.93-.84,1-.92.09-.05.62-.57,1.45-1.28.71-.57,1.32-1.33,2.61-2.56,3.22-3.13,3.7-3.66,99.62-97.54,4.32-4.68,3.84-5.16.49-.8,2.42-4.14.36-.58,1.81-4,.83-1.81,1.06-3.09,1-3,.48-2.2.89-4,.17-1.41.58-4.94V175l.08-5.6v-.26Zm-14.38,5.56,0,5.6-.09.58-.66,4.94-.36,1.41-1.05,4-.84,2.2-1.19,3L359,194.25l-1,1.81-2.82,4-.4.58-3.75,4.14-.84.8L345,210.75l-4.81,4.68L240.53,313l-4.19,3.66-4.63,3.13-5,2.56-3.62,1.33-1.63.57-5.43,1.28-5,.57-.53.05-5.6-.05-5.52-.75L194,324l-3.18-1.28-2-.8-4.9-2.64L179.25,316l-4.14-3.75-97.9-100.1-4.72-4.81-5.07-5.25-.4-.39-3.66-4.2-.66-1-2.47-3.66-1.15-2.2-1.41-2.78-1.19-3.36-.71-1.89-1.06-4.37-.22-1.1-.62-5.3v-.22l.05-5.6.08-.57.67-5,.35-1.37,1-4,.89-2.25,1.19-3,1.63-3.13,1-1.81,2.83-4,.4-.53,3.75-4.15.79-.84,5.25-5.12,4.81-4.72L178.2,28.06l4.23-3.66,4.63-3.14,5-2.51,3.57-1.32,1.63-.62,5.48-1.28,5.55-.62,5.56.05,5.56.75,5.43,1.41L228,18.35l2,.8,4.94,2.64L239.48,25l4.14,3.75,97.94,100.15,4.72,4.81,5.08,5.21.39.39,3.67,4.24.66,1,2.47,3.66,1.1,2.21,1.41,2.78,1.24,3.31.7,1.94,1,4.36.26,1.06.58,5.3Z"/><polygon class="cls-3" points="169.15 74.78 174.36 79.32 178.33 82.72 180.67 84.53 187.9 90.18 188.17 90.35 197.25 96.62 197.87 97.1 202.28 99.79 208.24 103.46 214.28 99.79 218.83 97.1 219.58 96.62 231.18 90.35 231.53 90.18 243.09 84.53 247.33 82.72 255.22 79.32 267.09 74.78 267.62 74.6 259.55 66.35 232.99 39.18 232.46 38.73 229.64 36.22 229.02 35.82 225.89 33.75 225.22 33.44 221.83 31.85 221.08 31.63 217.55 30.57 216.62 30.4 213.14 29.87 208.68 29.82 208.28 29.87 204.22 30.4 203.7 30.57 199.9 31.63 199.37 31.85 195.84 33.44 195.31 33.75 192.05 35.82 191.56 36.22 188.61 38.73 188.12 39.18 160.37 66.35 168.93 74.6 169.15 74.78"/><polygon class="cls-3" points="252.75 99 239.43 105.71 226.46 112.94 236.47 117.31 246.75 121.19 257.17 124.59 267.75 127.46 278.3 129 278.43 129 288.89 129.88 289.15 129.93 299.56 130.19 310.2 129.93 310.28 129.88 320.83 129 320.78 129 319.33 127.46 316.5 124.59 313.2 121.19 309.4 117.31 305.12 112.94 298.02 105.71 291.49 99 285.58 92.96 282.84 90.18 280.24 87.48 273.45 90.18 266.39 92.96 252.75 99"/><polygon class="cls-3" points="136.06 105.53 137.3 106.46 144.89 112.19 145.5 112.59 154.02 118.37 157.9 120.75 163.42 124.1 172.5 129.04 173.12 129.4 173.52 129.04 179.56 124.1 183.67 120.75 186.84 118.37 194.56 112.59 193.9 112.19 184.86 106.46 183.53 105.53 175.46 99.79 173.78 98.47 166.42 92.65 157.77 85.02 151.95 79.32 149.56 76.98 147.18 79.32 141.31 85.02 133.55 92.65 127.59 98.47 129.18 99.79 136.06 105.53"/><polygon class="cls-3" points="103.2 137.91 106.55 140.16 112.55 144.18 122.08 149.87 122.21 149.96 132.14 155.25 141.97 159.88 142.33 160.01 142.46 159.88 146.65 155.25 151.5 149.96 151.55 149.87 157.24 144.18 161.25 140.16 157.28 137.91 151.77 134.82 145.99 131.21 142.55 129.04 133.64 122.82 125.03 116.16 120.4 112.19 116.78 109.06 113.61 112.19 109.55 116.16 102.71 122.82 96.36 129.04 94.2 131.21 99.05 134.82 103.2 137.91"/><polygon class="cls-3" points="349.5 166.24 349.42 165.35 349.02 163.99 348.89 163.54 348.58 162.4 348.31 161.47 348.18 161.07 347.65 159.88 346.64 157.5 346.37 156.97 344.83 154.5 343.99 153.18 342 150.79 341.12 149.74 337.99 146.56 336.4 144.93 332.96 141.44 331.95 140.38 331.77 140.21 331.55 139.99 330.58 138.97 328.9 137.25 326.52 134.82 325.5 133.81 323.48 131.74 319.68 133.81 317.83 134.82 311.87 137.25 305.65 138.97 299.25 139.99 292.81 140.21 282.84 140.38 280.11 140.21 272.92 139.85 262.99 138.62 256.73 137.38 253.24 136.72 242.65 133.81 232.24 130.37 229.86 129.44 222 126.4 214.02 122.82 211.99 121.94 210.71 122.82 205.5 126.4 201.05 129.44 199.81 130.37 195.22 133.81 191.34 136.72 190.42 137.38 193.59 138.62 196.77 139.85 197.78 140.21 198.18 140.38 200.96 141.44 211.68 144.93 217.59 146.56 222.58 147.93 226.99 148.85 233.61 150.31 235.5 150.66 242.83 151.9 244.72 152.21 252.49 152.56 254.96 152.65 265.2 152.56 270.4 152.21 275.39 151.9 285.53 150.66 287.34 150.31 295.59 148.85 299.74 147.93 305.56 146.56 301.9 149.74 300.71 150.79 297.27 153.18 295.37 154.5 290.7 156.97 289.68 157.5 283.64 159.88 279.05 161.07 277.37 161.47 270.98 162.4 261.09 163.54 251.12 163.99 241.15 163.76 231.22 162.84 220.24 160.99 209.34 158.51 203.39 156.88 198.58 155.51 187.99 151.99 177.67 147.93 177.62 147.88 177.58 147.93 173.03 151.99 169.11 155.51 167.61 156.88 165.89 158.51 163.37 160.99 161.43 162.84 160.5 163.76 160.28 163.99 158.87 165.35 157.95 166.24 161.52 167.43 168.71 169.76 172.24 170.74 179.61 172.72 183.05 173.47 190.64 175.15 193.99 175.72 201.8 177.04 204.97 177.4 213.05 178.37 215.78 178.54 218.39 178.72 224.34 179.12 231.4 178.72 234.53 178.54 236.17 178.37 244.68 177.4 246.93 177.04 254.78 175.72 257.3 175.15 264.75 173.47 267.45 172.72 274.59 170.74 277.42 169.76 284.25 167.43 282.05 169.81 279.89 172.15 277.33 174.26 274.95 176.34 271.37 178.72 269.56 179.91 263.78 182.82 263.39 183 257.74 185.07 251.47 186.62 249.49 187.06 241.72 188.74 231.84 190.19 230.56 190.28 221.92 190.94 211.95 191.03 200.87 190.28 189.84 188.96 186.53 188.38 178.9 187.06 168.05 184.59 157.37 181.59 147.75 178.37 146.83 178.06 146.56 178.37 143.78 181.59 141.18 184.59 139.11 187.06 137.96 188.38 137.47 188.96 136.46 190.28 135.84 191.03 133.06 194.56 130.11 198.26 129.49 199.06 138.75 201.49 142.06 202.37 150.97 204.18 154.81 204.97 164.25 206.34 167.7 206.82 180.45 207.93 180.67 207.93 182.56 207.97 193.68 208.28 204.18 207.97 205.95 207.93 206.7 207.93 213.62 206.82 216.8 206.34 223.15 204.97 226.81 204.18 233.43 202.37 236.65 201.49 244.02 199.06 246.36 198.26 255.89 194.56 263.52 191.03 263.7 190.94 265.2 190.28 264.8 190.76 262.24 194.12 261.27 195.44 256.77 200.07 251.78 204.18 246.36 207.71 240.53 210.53 234.45 212.65 227.39 214.94 224.96 215.74 215.3 218.21 205.46 219.93 203.83 220.1 195.58 221.03 182.83 221.38 170.12 220.99 157.46 219.84 150.31 218.74 144.89 217.94 132.45 215.29 122.74 212.65 120.14 211.99 119.7 212.65 117.93 215.29 116.17 217.94 115.64 218.74 114.93 219.84 114.22 220.99 113.96 221.38 111.8 224.78 111.22 225.66 114.49 228.97 118.06 232.63 121.11 235.72 123.67 238.32 124.2 238.85 132.4 239.82 135.45 240.18 144.09 240.79 146.78 240.97 158.12 241.15 163.99 240.97 169.46 240.79 176.43 240.18 180.8 239.82 187.99 238.85 192.05 238.32 201.93 235.72 211.64 232.63 221.21 228.97 228.67 225.66 230.56 224.78 237.22 221.38 237.89 221.03 239.65 220.1 239.96 219.93 242.96 218.21 247.11 215.74 248.47 214.94 245.08 220.46 241.06 225.53 236.52 230.12 231.45 234.13 225.97 237.57 220.11 240.31 210.97 244.32 201.62 247.68 192 250.41 182.25 252.49 171.75 253.9 161.17 254.78 150.53 255.13 139.95 254.96 140.08 255.13 185.78 301.85 186.31 302.34 189.14 304.81 189.75 305.21 192.84 307.28 193.55 307.59 196.9 309.18 197.7 309.4 201.18 310.5 202.11 310.63 205.59 311.16 210.09 311.21 210.45 311.16 214.55 310.63 215.03 310.5 218.83 309.4 219.36 309.18 222.93 307.59 223.46 307.28 226.72 305.21 227.21 304.81 230.12 302.34 230.61 301.85 278.34 255.13 278.7 254.78 279.58 253.9 281.03 252.49 283.15 250.41 285.93 247.68 289.37 244.32 293.48 240.31 296.3 237.57 299.74 234.13 303.84 230.12 308.52 225.53 313.73 220.46 319.37 214.94 321.71 212.65 323.87 210.53 326.78 207.71 330.36 204.18 334.55 200.07 339.31 195.44 340.64 194.12 343.59 190.76 343.9 190.28 343.99 190.19 344.96 188.74 346.06 187.06 346.24 186.62 346.99 185.07 347.96 183 348 182.82 348.89 179.91 349.28 178.72 349.64 176.34 349.95 174.26 349.99 172.15 349.99 169.81 349.68 167.43 349.5 166.24"/><polygon class="cls-3" points="90.05 183.26 96.62 186.53 106.37 190.85 115.81 194.56 116.3 194.74 116.43 194.56 118.9 190.85 121.86 186.53 124.06 183.26 125.17 181.76 129.05 176.51 132.31 172.15 129.71 170.87 121.95 167.12 120.93 166.54 113.21 162.31 111.8 161.56 106.46 158.21 102 155.43 100.37 154.28 95.17 150.66 92.52 148.85 90.71 147.4 86.56 144.18 83.43 141.71 80.96 144.18 77.65 147.4 76.42 148.85 74.87 150.66 72.53 154.28 72 155.43 70.72 158.21 69.71 161.56 69.49 162.31 68.83 166.54 68.83 167.12 68.74 170.87 70.77 172.15 77.78 176.51 87.09 181.76 90.05 183.26"/><polygon class="cls-3" points="91.28 200.87 86.08 198.26 83.03 196.76 84.49 198.26 87 200.87 90.67 204.62 93.97 207.97 101.56 215.74 103.15 217.37 104.03 215.74 108.31 207.97 99.71 204.62 91.28 200.87"/><path class="cls-3" d="M0,454.22V365.1H20v36.37H49.75L79.12,365.1H104L67.25,409.6,104,454.22H79.12l-29.5-36.5H20v36.5Z"/><path class="cls-3" d="M114,454.22V364.85h20V438h65.37v16.25Z"/><path class="cls-3" d="M209,454.85V438.6l71.87.12q5.5,0,8.44-2.56t2.94-8.31q0-5.76-2.94-8.32c-2-1.7-4.77-2.56-8.44-2.56H236.12q-13.87,0-21.56-6.69t-7.69-19.68q0-13,7.69-19.69t21.56-6.69h70.25v16.25l-68.12-.12q-5.38,0-8.38,2.43c-2,1.63-3,4.23-3,7.82s1,6.18,3,7.81,4.79,2.44,8.38,2.44H283q13.88,0,21.56,6.81t7.69,20.19q0,13.25-7.69,20.12T283,454.85Z"/><path class="cls-3" d="M324.75,454.22V365.1l75.25-.25q14.87,0,22.06,6.18t7.19,18.57q0,12.38-8.25,18.12a19.45,19.45,0,0,1,8.12,7.94q2.63,4.93,2.63,12.69,0,12.61-7.19,19.18T402.5,454.1Zm72.87-73.37H344.75v20h52.87q11.37,0,11.38-10.25Q409,380.85,397.62,380.85Zm2.5,36H344.75V438.1h55.37q11.37,0,11.38-10.75Q411.5,416.85,400.12,416.85Z"/></g></g></svg>